<mxfile host="app.diagrams.net" modified="2023-01-10T18:27:32.965Z" agent="5.0 (Windows NT 10.0; Win64; x64) AppleWebKit/537.36 (KHTML, like Gecko) Chrome/105.0.0.0 Safari/537.36 Edg/105.0.1343.33" etag="PA9HnwTXppUJ5iHubaPw" version="20.8.3" type="github">
  <diagram id="C5RBs43oDa-KdzZeNtuy" name="Page-1">
    <mxGraphModel dx="3073" dy="2319" grid="1" gridSize="10" guides="1" tooltips="1" connect="1" arrows="1" fold="1" page="1" pageScale="1" pageWidth="827" pageHeight="1169" math="0" shadow="0">
      <root>
        <mxCell id="WIyWlLk6GJQsqaUBKTNV-0" />
        <mxCell id="WIyWlLk6GJQsqaUBKTNV-1" parent="WIyWlLk6GJQsqaUBKTNV-0" />
        <mxCell id="zkfFHV4jXpPFQw0GAbJ--0" value="Folder" style="swimlane;fontStyle=2;align=center;verticalAlign=top;childLayout=stackLayout;horizontal=1;startSize=26;horizontalStack=0;resizeParent=1;resizeLast=0;collapsible=1;marginBottom=0;rounded=0;shadow=0;strokeWidth=1;" parent="WIyWlLk6GJQsqaUBKTNV-1" vertex="1">
          <mxGeometry x="-760" y="130" width="160" height="100" as="geometry">
            <mxRectangle x="230" y="140" width="160" height="26" as="alternateBounds" />
          </mxGeometry>
        </mxCell>
        <mxCell id="zkfFHV4jXpPFQw0GAbJ--1" value="        AzureAmortRaw" style="text;align=left;verticalAlign=top;spacingLeft=4;spacingRight=4;overflow=hidden;rotatable=0;points=[[0,0.5],[1,0.5]];portConstraint=eastwest;" parent="zkfFHV4jXpPFQw0GAbJ--0" vertex="1">
          <mxGeometry y="26" width="160" height="26" as="geometry" />
        </mxCell>
        <mxCell id="zkfFHV4jXpPFQw0GAbJ--4" value="" style="line;html=1;strokeWidth=1;align=left;verticalAlign=middle;spacingTop=-1;spacingLeft=3;spacingRight=3;rotatable=0;labelPosition=right;points=[];portConstraint=eastwest;" parent="zkfFHV4jXpPFQw0GAbJ--0" vertex="1">
          <mxGeometry y="52" width="160" height="8" as="geometry" />
        </mxCell>
        <mxCell id="c1FFS8SZqQwpL22P5DFt-1" value="Download Manually From Azure Portal" style="text;html=1;strokeColor=none;fillColor=none;align=center;verticalAlign=middle;whiteSpace=wrap;rounded=0;" parent="zkfFHV4jXpPFQw0GAbJ--0" vertex="1">
          <mxGeometry y="60" width="160" height="30" as="geometry" />
        </mxCell>
        <mxCell id="zkfFHV4jXpPFQw0GAbJ--16" value="" style="endArrow=block;endSize=10;endFill=0;shadow=0;strokeWidth=1;rounded=0;edgeStyle=elbowEdgeStyle;elbow=vertical;" parent="WIyWlLk6GJQsqaUBKTNV-1" edge="1">
          <mxGeometry x="-0.25" y="170" width="160" relative="1" as="geometry">
            <mxPoint x="400" y="350" as="sourcePoint" />
            <mxPoint x="400" y="430" as="targetPoint" />
            <mxPoint as="offset" />
          </mxGeometry>
        </mxCell>
        <mxCell id="zkfFHV4jXpPFQw0GAbJ--17" value="Python Script: cleanData.py&#xa;Purpose: Keep necessary columns &amp; Make dataset smaller" style="swimlane;fontStyle=2;align=center;verticalAlign=top;childLayout=stackLayout;horizontal=1;startSize=50;horizontalStack=0;resizeParent=1;resizeLast=0;collapsible=1;marginBottom=0;rounded=0;shadow=0;strokeWidth=1;" parent="WIyWlLk6GJQsqaUBKTNV-1" vertex="1">
          <mxGeometry x="-470" y="90" width="480" height="230" as="geometry">
            <mxRectangle x="550" y="140" width="160" height="26" as="alternateBounds" />
          </mxGeometry>
        </mxCell>
        <mxCell id="zkfFHV4jXpPFQw0GAbJ--18" value="- Add columns: CSP, Scenario" style="text;align=left;verticalAlign=top;spacingLeft=4;spacingRight=4;overflow=hidden;rotatable=0;points=[[0,0.5],[1,0.5]];portConstraint=eastwest;" parent="zkfFHV4jXpPFQw0GAbJ--17" vertex="1">
          <mxGeometry y="50" width="480" height="26" as="geometry" />
        </mxCell>
        <mxCell id="zkfFHV4jXpPFQw0GAbJ--19" value="- Adjust columns: Category, Service, ServiceID, Charge Type based on conditions" style="text;align=left;verticalAlign=top;spacingLeft=4;spacingRight=4;overflow=hidden;rotatable=0;points=[[0,0.5],[1,0.5]];portConstraint=eastwest;rounded=0;shadow=0;html=0;" parent="zkfFHV4jXpPFQw0GAbJ--17" vertex="1">
          <mxGeometry y="76" width="480" height="26" as="geometry" />
        </mxCell>
        <mxCell id="zkfFHV4jXpPFQw0GAbJ--20" value="- Add measures: OnDemandCost, Savings" style="text;align=left;verticalAlign=top;spacingLeft=4;spacingRight=4;overflow=hidden;rotatable=0;points=[[0,0.5],[1,0.5]];portConstraint=eastwest;rounded=0;shadow=0;html=0;" parent="zkfFHV4jXpPFQw0GAbJ--17" vertex="1">
          <mxGeometry y="102" width="480" height="26" as="geometry" />
        </mxCell>
        <mxCell id="zkfFHV4jXpPFQw0GAbJ--21" value="- Group by: Month, CSP, Scenario, Category, Service, ServiceID, ChargeType, &#xa;SubscriptionID, ResourceGroup, Tags (aggregate: OnDemandCost, Savings, &#xa;NetAmortizedCost)" style="text;align=left;verticalAlign=top;spacingLeft=4;spacingRight=4;overflow=hidden;rotatable=0;points=[[0,0.5],[1,0.5]];portConstraint=eastwest;rounded=0;shadow=0;html=0;" parent="zkfFHV4jXpPFQw0GAbJ--17" vertex="1">
          <mxGeometry y="128" width="480" height="56" as="geometry" />
        </mxCell>
        <mxCell id="zkfFHV4jXpPFQw0GAbJ--23" value="" style="line;html=1;strokeWidth=1;align=left;verticalAlign=middle;spacingTop=-1;spacingLeft=3;spacingRight=3;rotatable=0;labelPosition=right;points=[];portConstraint=eastwest;" parent="zkfFHV4jXpPFQw0GAbJ--17" vertex="1">
          <mxGeometry y="184" width="480" height="8" as="geometry" />
        </mxCell>
        <mxCell id="zkfFHV4jXpPFQw0GAbJ--24" value="Output: Make dataset smaller, Keep column: Tags for next step" style="text;align=left;verticalAlign=top;spacingLeft=4;spacingRight=4;overflow=hidden;rotatable=0;points=[[0,0.5],[1,0.5]];portConstraint=eastwest;" parent="zkfFHV4jXpPFQw0GAbJ--17" vertex="1">
          <mxGeometry y="192" width="480" height="26" as="geometry" />
        </mxCell>
        <mxCell id="zkfFHV4jXpPFQw0GAbJ--26" value="" style="endArrow=open;shadow=0;strokeWidth=1;rounded=0;endFill=1;edgeStyle=elbowEdgeStyle;elbow=vertical;" parent="WIyWlLk6GJQsqaUBKTNV-1" source="zkfFHV4jXpPFQw0GAbJ--0" edge="1">
          <mxGeometry x="0.5" y="41" relative="1" as="geometry">
            <mxPoint x="-130" y="162" as="sourcePoint" />
            <mxPoint x="-470" y="180" as="targetPoint" />
            <mxPoint x="-40" y="32" as="offset" />
          </mxGeometry>
        </mxCell>
        <mxCell id="zkfFHV4jXpPFQw0GAbJ--29" value="Input: cleanData" style="text;html=1;resizable=0;points=[];;align=center;verticalAlign=middle;labelBackgroundColor=none;rounded=0;shadow=0;strokeWidth=1;fontSize=12;" parent="zkfFHV4jXpPFQw0GAbJ--26" vertex="1" connectable="0">
          <mxGeometry x="0.5" y="49" relative="1" as="geometry">
            <mxPoint x="-38" y="40" as="offset" />
          </mxGeometry>
        </mxCell>
        <mxCell id="kdGjKbwBno01de8cuiCs-0" value="" style="endArrow=open;shadow=0;strokeWidth=1;rounded=0;endFill=1;edgeStyle=elbowEdgeStyle;elbow=vertical;" parent="WIyWlLk6GJQsqaUBKTNV-1" edge="1">
          <mxGeometry x="0.5" y="41" relative="1" as="geometry">
            <mxPoint x="10" y="179.5" as="sourcePoint" />
            <mxPoint x="170" y="180" as="targetPoint" />
            <mxPoint x="-40" y="32" as="offset" />
          </mxGeometry>
        </mxCell>
        <mxCell id="kdGjKbwBno01de8cuiCs-1" value="Input: extractTag" style="text;html=1;resizable=0;points=[];;align=center;verticalAlign=middle;labelBackgroundColor=none;rounded=0;shadow=0;strokeWidth=1;fontSize=12;" parent="kdGjKbwBno01de8cuiCs-0" vertex="1" connectable="0">
          <mxGeometry x="0.5" y="49" relative="1" as="geometry">
            <mxPoint x="-38" y="40" as="offset" />
          </mxGeometry>
        </mxCell>
        <mxCell id="kdGjKbwBno01de8cuiCs-2" value="Python Script: extractTag.py&#xa;Purpose: Populate columns: &quot;Product&quot;, &quot;Environment&quot; or &quot;Customer&quot;" style="swimlane;fontStyle=2;align=center;verticalAlign=top;childLayout=stackLayout;horizontal=1;startSize=50;horizontalStack=0;resizeParent=1;resizeLast=0;collapsible=1;marginBottom=0;rounded=0;shadow=0;strokeWidth=1;" parent="WIyWlLk6GJQsqaUBKTNV-1" vertex="1">
          <mxGeometry x="170" y="40" width="480" height="310" as="geometry">
            <mxRectangle x="550" y="140" width="160" height="26" as="alternateBounds" />
          </mxGeometry>
        </mxCell>
        <mxCell id="kdGjKbwBno01de8cuiCs-3" value="- Keep table1 : cleanData as original table" style="text;align=left;verticalAlign=top;spacingLeft=4;spacingRight=4;overflow=hidden;rotatable=0;points=[[0,0.5],[1,0.5]];portConstraint=eastwest;" parent="kdGjKbwBno01de8cuiCs-2" vertex="1">
          <mxGeometry y="50" width="480" height="26" as="geometry" />
        </mxCell>
        <mxCell id="kdGjKbwBno01de8cuiCs-4" value="- Create table2: only select Tags column" style="text;align=left;verticalAlign=top;spacingLeft=4;spacingRight=4;overflow=hidden;rotatable=0;points=[[0,0.5],[1,0.5]];portConstraint=eastwest;rounded=0;shadow=0;html=0;" parent="kdGjKbwBno01de8cuiCs-2" vertex="1">
          <mxGeometry y="76" width="480" height="26" as="geometry" />
        </mxCell>
        <mxCell id="kdGjKbwBno01de8cuiCs-5" value="- On table2: Drop rows with null values in Tags (However, not drop duplicate because &#xa;do not want to map back table1 using Tags as key)&#xa;" style="text;align=left;verticalAlign=top;spacingLeft=4;spacingRight=4;overflow=hidden;rotatable=0;points=[[0,0.5],[1,0.5]];portConstraint=eastwest;rounded=0;shadow=0;html=0;" parent="kdGjKbwBno01de8cuiCs-2" vertex="1">
          <mxGeometry y="102" width="480" height="38" as="geometry" />
        </mxCell>
        <mxCell id="kdGjKbwBno01de8cuiCs-9" value="- On table2: Iterate over each row of Tags to extract value of environment and product" style="text;align=left;verticalAlign=top;spacingLeft=4;spacingRight=4;overflow=hidden;rotatable=0;points=[[0,0.5],[1,0.5]];portConstraint=eastwest;" parent="kdGjKbwBno01de8cuiCs-2" vertex="1">
          <mxGeometry y="140" width="480" height="26" as="geometry" />
        </mxCell>
        <mxCell id="kdGjKbwBno01de8cuiCs-10" value="- Output table2 include columns: Index, Tags, Environment, Product, (Customer)" style="text;align=left;verticalAlign=top;spacingLeft=4;spacingRight=4;overflow=hidden;rotatable=0;points=[[0,0.5],[1,0.5]];portConstraint=eastwest;" parent="kdGjKbwBno01de8cuiCs-2" vertex="1">
          <mxGeometry y="166" width="480" height="26" as="geometry" />
        </mxCell>
        <mxCell id="kdGjKbwBno01de8cuiCs-11" value="- Map table2 back to table1 on Index key. " style="text;align=left;verticalAlign=top;spacingLeft=4;spacingRight=4;overflow=hidden;rotatable=0;points=[[0,0.5],[1,0.5]];portConstraint=eastwest;" parent="kdGjKbwBno01de8cuiCs-2" vertex="1">
          <mxGeometry y="192" width="480" height="26" as="geometry" />
        </mxCell>
        <mxCell id="kdGjKbwBno01de8cuiCs-12" value="- Group by: CSP, Scenario, Category, Service, ServiceID, ChargeType, SubscriptionID,&#xa;ResourceGroup, Environment, Product (aggregate: OnDemandCost, Savings, &#xa;NetAmortizedCost)&#xa; " style="text;align=left;verticalAlign=top;spacingLeft=4;spacingRight=4;overflow=hidden;rotatable=0;points=[[0,0.5],[1,0.5]];portConstraint=eastwest;" parent="kdGjKbwBno01de8cuiCs-2" vertex="1">
          <mxGeometry y="218" width="480" height="42" as="geometry" />
        </mxCell>
        <mxCell id="kdGjKbwBno01de8cuiCs-14" value="" style="line;html=1;strokeWidth=1;align=left;verticalAlign=middle;spacingTop=-1;spacingLeft=3;spacingRight=3;rotatable=0;labelPosition=right;points=[];portConstraint=eastwest;" parent="kdGjKbwBno01de8cuiCs-2" vertex="1">
          <mxGeometry y="260" width="480" height="20" as="geometry" />
        </mxCell>
        <mxCell id="kdGjKbwBno01de8cuiCs-15" value="- Output: Make dataset smaller, have new columns: Environment, Product, Customer. " style="text;align=left;verticalAlign=top;spacingLeft=4;spacingRight=4;overflow=hidden;rotatable=0;points=[[0,0.5],[1,0.5]];portConstraint=eastwest;" parent="kdGjKbwBno01de8cuiCs-2" vertex="1">
          <mxGeometry y="280" width="480" height="26" as="geometry" />
        </mxCell>
        <mxCell id="kdGjKbwBno01de8cuiCs-16" value="" style="endArrow=open;shadow=0;strokeWidth=1;rounded=0;endFill=1;edgeStyle=elbowEdgeStyle;elbow=vertical;" parent="WIyWlLk6GJQsqaUBKTNV-1" edge="1">
          <mxGeometry x="0.5" y="41" relative="1" as="geometry">
            <mxPoint x="651" y="194.5" as="sourcePoint" />
            <mxPoint x="811" y="195" as="targetPoint" />
            <mxPoint x="-40" y="32" as="offset" />
          </mxGeometry>
        </mxCell>
        <mxCell id="kdGjKbwBno01de8cuiCs-17" value="Save file" style="text;html=1;resizable=0;points=[];;align=center;verticalAlign=middle;labelBackgroundColor=none;rounded=0;shadow=0;strokeWidth=1;fontSize=12;" parent="kdGjKbwBno01de8cuiCs-16" vertex="1" connectable="0">
          <mxGeometry x="0.5" y="49" relative="1" as="geometry">
            <mxPoint x="-38" y="40" as="offset" />
          </mxGeometry>
        </mxCell>
        <mxCell id="kdGjKbwBno01de8cuiCs-35" value="Folder" style="swimlane;fontStyle=2;align=center;verticalAlign=top;childLayout=stackLayout;horizontal=1;startSize=26;horizontalStack=0;resizeParent=1;resizeLast=0;collapsible=1;marginBottom=0;rounded=0;shadow=0;strokeWidth=1;" parent="WIyWlLk6GJQsqaUBKTNV-1" vertex="1">
          <mxGeometry x="810" y="170" width="160" height="70" as="geometry">
            <mxRectangle x="230" y="140" width="160" height="26" as="alternateBounds" />
          </mxGeometry>
        </mxCell>
        <mxCell id="kdGjKbwBno01de8cuiCs-36" value="          AzureAmortMeta" style="text;align=left;verticalAlign=top;spacingLeft=4;spacingRight=4;overflow=hidden;rotatable=0;points=[[0,0.5],[1,0.5]];portConstraint=eastwest;" parent="kdGjKbwBno01de8cuiCs-35" vertex="1">
          <mxGeometry y="26" width="160" height="26" as="geometry" />
        </mxCell>
        <mxCell id="kdGjKbwBno01de8cuiCs-41" value="Create Product and Environment Mapping Files" style="swimlane;fontStyle=0;align=center;verticalAlign=top;childLayout=stackLayout;horizontal=1;startSize=50;horizontalStack=0;resizeParent=1;resizeLast=0;collapsible=1;marginBottom=0;rounded=0;shadow=0;strokeWidth=1;" parent="WIyWlLk6GJQsqaUBKTNV-1" vertex="1">
          <mxGeometry x="1090" y="20" width="480" height="250" as="geometry">
            <mxRectangle x="550" y="140" width="160" height="26" as="alternateBounds" />
          </mxGeometry>
        </mxCell>
        <mxCell id="kdGjKbwBno01de8cuiCs-42" value="- Select &quot;Product&quot; column only" style="text;align=left;verticalAlign=top;spacingLeft=4;spacingRight=4;overflow=hidden;rotatable=0;points=[[0,0.5],[1,0.5]];portConstraint=eastwest;" parent="kdGjKbwBno01de8cuiCs-41" vertex="1">
          <mxGeometry y="50" width="480" height="26" as="geometry" />
        </mxCell>
        <mxCell id="kdGjKbwBno01de8cuiCs-50" value="- Drop duplicates, rename column: ProductNameKey" style="text;align=left;verticalAlign=top;spacingLeft=4;spacingRight=4;overflow=hidden;rotatable=0;points=[[0,0.5],[1,0.5]];portConstraint=eastwest;" parent="kdGjKbwBno01de8cuiCs-41" vertex="1">
          <mxGeometry y="76" width="480" height="26" as="geometry" />
        </mxCell>
        <mxCell id="kdGjKbwBno01de8cuiCs-43" value="- Group similar names (e.g TWX, Thingworx, ThingWorxIOT) into a ProductNumber (&#xa;e.g: TWX_0001)" style="text;align=left;verticalAlign=top;spacingLeft=4;spacingRight=4;overflow=hidden;rotatable=0;points=[[0,0.5],[1,0.5]];portConstraint=eastwest;rounded=0;shadow=0;html=0;" parent="kdGjKbwBno01de8cuiCs-41" vertex="1">
          <mxGeometry y="102" width="480" height="38" as="geometry" />
        </mxCell>
        <mxCell id="kdGjKbwBno01de8cuiCs-52" value="- Group similar names (e.g prod, PROD, production) into a EnvironmentNumber (&#xa;e.g: PROD_0001)" style="text;align=left;verticalAlign=top;spacingLeft=4;spacingRight=4;overflow=hidden;rotatable=0;points=[[0,0.5],[1,0.5]];portConstraint=eastwest;rounded=0;shadow=0;html=0;" parent="kdGjKbwBno01de8cuiCs-41" vertex="1">
          <mxGeometry y="140" width="480" height="38" as="geometry" />
        </mxCell>
        <mxCell id="kdGjKbwBno01de8cuiCs-51" value="" style="line;html=1;strokeWidth=1;align=left;verticalAlign=middle;spacingTop=-1;spacingLeft=3;spacingRight=3;rotatable=0;labelPosition=right;points=[];portConstraint=eastwest;" parent="kdGjKbwBno01de8cuiCs-41" vertex="1">
          <mxGeometry y="178" width="480" height="20" as="geometry" />
        </mxCell>
        <mxCell id="kdGjKbwBno01de8cuiCs-78" value="- Output: MetaProductMap includes: ProductNameKey, ProductNumber&#xa;               MetaEnvMap includes: EnvironmentNameKey, EnvironmentNumber" style="text;align=left;verticalAlign=top;spacingLeft=4;spacingRight=4;overflow=hidden;rotatable=0;points=[[0,0.5],[1,0.5]];portConstraint=eastwest;rounded=0;shadow=0;html=0;" parent="kdGjKbwBno01de8cuiCs-41" vertex="1">
          <mxGeometry y="198" width="480" height="38" as="geometry" />
        </mxCell>
        <mxCell id="kdGjKbwBno01de8cuiCs-48" value="" style="endArrow=open;shadow=0;strokeWidth=1;rounded=0;endFill=1;edgeStyle=elbowEdgeStyle;elbow=vertical;" parent="WIyWlLk6GJQsqaUBKTNV-1" edge="1">
          <mxGeometry x="0.5" y="41" relative="1" as="geometry">
            <mxPoint x="970" y="196" as="sourcePoint" />
            <mxPoint x="1090" y="197" as="targetPoint" />
            <mxPoint x="-40" y="32" as="offset" />
          </mxGeometry>
        </mxCell>
        <mxCell id="kdGjKbwBno01de8cuiCs-49" value="Input" style="text;html=1;resizable=0;points=[];;align=center;verticalAlign=middle;labelBackgroundColor=none;rounded=0;shadow=0;strokeWidth=1;fontSize=12;" parent="kdGjKbwBno01de8cuiCs-48" vertex="1" connectable="0">
          <mxGeometry x="0.5" y="49" relative="1" as="geometry">
            <mxPoint x="-40" y="38" as="offset" />
          </mxGeometry>
        </mxCell>
        <mxCell id="kdGjKbwBno01de8cuiCs-53" value="Save file" style="text;html=1;resizable=0;points=[];;align=center;verticalAlign=middle;labelBackgroundColor=none;rounded=0;shadow=0;strokeWidth=1;fontSize=12;" parent="WIyWlLk6GJQsqaUBKTNV-1" vertex="1" connectable="0">
          <mxGeometry x="1250" y="280" as="geometry" />
        </mxCell>
        <mxCell id="kdGjKbwBno01de8cuiCs-54" value="" style="endArrow=open;shadow=0;strokeWidth=1;rounded=0;endFill=1;edgeStyle=elbowEdgeStyle;elbow=vertical;entryX=0.5;entryY=0;entryDx=0;entryDy=0;entryPerimeter=0;" parent="WIyWlLk6GJQsqaUBKTNV-1" target="kdGjKbwBno01de8cuiCs-56" edge="1">
          <mxGeometry x="0.5" y="41" relative="1" as="geometry">
            <mxPoint x="1280" y="270" as="sourcePoint" />
            <mxPoint x="1280" y="320" as="targetPoint" />
            <mxPoint x="-40" y="32" as="offset" />
          </mxGeometry>
        </mxCell>
        <mxCell id="kdGjKbwBno01de8cuiCs-56" value="Folder" style="swimlane;fontStyle=2;align=center;verticalAlign=top;childLayout=stackLayout;horizontal=1;startSize=26;horizontalStack=0;resizeParent=1;resizeLast=0;collapsible=1;marginBottom=0;rounded=0;shadow=0;strokeWidth=1;" parent="WIyWlLk6GJQsqaUBKTNV-1" vertex="1">
          <mxGeometry x="1090" y="330" width="250" height="150" as="geometry">
            <mxRectangle x="230" y="140" width="160" height="26" as="alternateBounds" />
          </mxGeometry>
        </mxCell>
        <mxCell id="kdGjKbwBno01de8cuiCs-57" value="                     MetaMappingFile" style="text;align=left;verticalAlign=top;spacingLeft=4;spacingRight=4;overflow=hidden;rotatable=0;points=[[0,0.5],[1,0.5]];portConstraint=eastwest;" parent="kdGjKbwBno01de8cuiCs-56" vertex="1">
          <mxGeometry y="26" width="250" height="26" as="geometry" />
        </mxCell>
        <mxCell id="kdGjKbwBno01de8cuiCs-69" value="" style="line;html=1;strokeWidth=1;align=left;verticalAlign=middle;spacingTop=-1;spacingLeft=3;spacingRight=3;rotatable=0;labelPosition=right;points=[];portConstraint=eastwest;" parent="kdGjKbwBno01de8cuiCs-56" vertex="1">
          <mxGeometry y="52" width="250" height="20" as="geometry" />
        </mxCell>
        <mxCell id="kdGjKbwBno01de8cuiCs-71" value="- MetaProduct&#xa;- MetaEnv&#xa;- CustomerMappingFileFromAlina" style="text;align=left;verticalAlign=top;spacingLeft=4;spacingRight=4;overflow=hidden;rotatable=0;points=[[0,0.5],[1,0.5]];portConstraint=eastwest;rounded=0;shadow=0;html=0;" parent="kdGjKbwBno01de8cuiCs-56" vertex="1">
          <mxGeometry y="72" width="250" height="58" as="geometry" />
        </mxCell>
        <mxCell id="kdGjKbwBno01de8cuiCs-118" value="" style="endArrow=open;shadow=0;strokeWidth=1;rounded=0;endFill=1;edgeStyle=elbowEdgeStyle;elbow=vertical;exitX=1;exitY=0.655;exitDx=0;exitDy=0;exitPerimeter=0;" parent="kdGjKbwBno01de8cuiCs-56" source="kdGjKbwBno01de8cuiCs-71" edge="1">
          <mxGeometry x="0.5" y="41" relative="1" as="geometry">
            <mxPoint x="290" y="110" as="sourcePoint" />
            <mxPoint x="500" y="110" as="targetPoint" />
            <mxPoint x="-40" y="32" as="offset" />
          </mxGeometry>
        </mxCell>
        <mxCell id="kdGjKbwBno01de8cuiCs-60" value="Input" style="text;html=1;resizable=0;points=[];;align=center;verticalAlign=middle;labelBackgroundColor=none;rounded=0;shadow=0;strokeWidth=1;fontSize=12;" parent="WIyWlLk6GJQsqaUBKTNV-1" vertex="1" connectable="0">
          <mxGeometry x="380" y="390" as="geometry" />
        </mxCell>
        <mxCell id="kdGjKbwBno01de8cuiCs-61" value="Python Script: mapTag.py&#xa;Purpose: Populate columns: &quot;ProductID&quot;, &quot;EnvironmentID&quot;" style="swimlane;fontStyle=2;align=center;verticalAlign=top;childLayout=stackLayout;horizontal=1;startSize=50;horizontalStack=0;resizeParent=1;resizeLast=0;collapsible=1;marginBottom=0;rounded=0;shadow=0;strokeWidth=1;" parent="WIyWlLk6GJQsqaUBKTNV-1" vertex="1">
          <mxGeometry x="170" y="430" width="440" height="340" as="geometry">
            <mxRectangle x="230" y="140" width="160" height="26" as="alternateBounds" />
          </mxGeometry>
        </mxCell>
        <mxCell id="kdGjKbwBno01de8cuiCs-62" value="- Input (Table1): CSP, Scenario,...., Product, Environment" style="text;align=left;verticalAlign=top;spacingLeft=4;spacingRight=4;overflow=hidden;rotatable=0;points=[[0,0.5],[1,0.5]];portConstraint=eastwest;" parent="kdGjKbwBno01de8cuiCs-61" vertex="1">
          <mxGeometry y="50" width="440" height="26" as="geometry" />
        </mxCell>
        <mxCell id="kdGjKbwBno01de8cuiCs-65" value="- Map Table 1 with MetaProduct and MetaEnv using ProductNameKey &amp;&#xa; EnvironmentNameKey&#xa;" style="text;align=left;verticalAlign=top;spacingLeft=4;spacingRight=4;overflow=hidden;rotatable=0;points=[[0,0.5],[1,0.5]];portConstraint=eastwest;" parent="kdGjKbwBno01de8cuiCs-61" vertex="1">
          <mxGeometry y="76" width="440" height="38" as="geometry" />
        </mxCell>
        <mxCell id="kdGjKbwBno01de8cuiCs-67" value="- Rename: EnvironmentNumber -&gt; EnvironmentID, ProductNumber -&gt;ProductID&#xa;" style="text;align=left;verticalAlign=top;spacingLeft=4;spacingRight=4;overflow=hidden;rotatable=0;points=[[0,0.5],[1,0.5]];portConstraint=eastwest;" parent="kdGjKbwBno01de8cuiCs-61" vertex="1">
          <mxGeometry y="114" width="440" height="38" as="geometry" />
        </mxCell>
        <mxCell id="kdGjKbwBno01de8cuiCs-68" value="- Group By: CSP, Scenario, Category, Service, ChargeType, SubscriptionID,&#xa;ResourceGroup, ProductID, EnvironmentID  (aggregate:&#xa;OnDemandCost, Savings, NetAmortizedCost)" style="text;align=left;verticalAlign=top;spacingLeft=4;spacingRight=4;overflow=hidden;rotatable=0;points=[[0,0.5],[1,0.5]];portConstraint=eastwest;" parent="kdGjKbwBno01de8cuiCs-61" vertex="1">
          <mxGeometry y="152" width="440" height="52" as="geometry" />
        </mxCell>
        <mxCell id="kdGjKbwBno01de8cuiCs-79" value="" style="line;html=1;strokeWidth=1;align=left;verticalAlign=middle;spacingTop=-1;spacingLeft=3;spacingRight=3;rotatable=0;labelPosition=right;points=[];portConstraint=eastwest;" parent="kdGjKbwBno01de8cuiCs-61" vertex="1">
          <mxGeometry y="204" width="440" height="10" as="geometry" />
        </mxCell>
        <mxCell id="kdGjKbwBno01de8cuiCs-81" value="- Output:&#xa;  + Table 1: ProductID, Product Name&#xa;  + Table 2: EnvironemtnID, EnvironmentName&#xa;  + Table 3: ServiceID, ServiceName&#xa;&#xa;  + Table 4: all columns: CSP, Scenario, Category, Service, ChargeType, &#xa;SubscriptionID, ResourceGroup, ProductID, EnvironmentID, OnDemandCost, &#xa;Savings, NetAmortizedCost)" style="text;align=left;verticalAlign=top;spacingLeft=4;spacingRight=4;overflow=hidden;rotatable=0;points=[[0,0.5],[1,0.5]];portConstraint=eastwest;" parent="kdGjKbwBno01de8cuiCs-61" vertex="1">
          <mxGeometry y="214" width="440" height="120" as="geometry" />
        </mxCell>
        <mxCell id="kdGjKbwBno01de8cuiCs-63" value="" style="endArrow=open;shadow=0;strokeWidth=1;rounded=0;endFill=1;edgeStyle=elbowEdgeStyle;elbow=vertical;" parent="WIyWlLk6GJQsqaUBKTNV-1" edge="1">
          <mxGeometry x="0.5" y="41" relative="1" as="geometry">
            <mxPoint x="1090" y="400" as="sourcePoint" />
            <mxPoint x="401" y="400" as="targetPoint" />
            <mxPoint x="-40" y="32" as="offset" />
            <Array as="points">
              <mxPoint x="591" y="400" />
            </Array>
          </mxGeometry>
        </mxCell>
        <mxCell id="kdGjKbwBno01de8cuiCs-83" value="Folder" style="swimlane;fontStyle=2;align=center;verticalAlign=top;childLayout=stackLayout;horizontal=1;startSize=26;horizontalStack=0;resizeParent=1;resizeLast=0;collapsible=1;marginBottom=0;rounded=0;shadow=0;strokeWidth=1;" parent="WIyWlLk6GJQsqaUBKTNV-1" vertex="1">
          <mxGeometry x="1040" y="600" width="430" height="260" as="geometry">
            <mxRectangle x="230" y="140" width="160" height="26" as="alternateBounds" />
          </mxGeometry>
        </mxCell>
        <mxCell id="kdGjKbwBno01de8cuiCs-84" value="                                              Dimension Tables" style="text;align=left;verticalAlign=top;spacingLeft=4;spacingRight=4;overflow=hidden;rotatable=0;points=[[0,0.5],[1,0.5]];portConstraint=eastwest;" parent="kdGjKbwBno01de8cuiCs-83" vertex="1">
          <mxGeometry y="26" width="430" height="26" as="geometry" />
        </mxCell>
        <mxCell id="kdGjKbwBno01de8cuiCs-85" value="" style="line;html=1;strokeWidth=1;align=left;verticalAlign=middle;spacingTop=-1;spacingLeft=3;spacingRight=3;rotatable=0;labelPosition=right;points=[];portConstraint=eastwest;" parent="kdGjKbwBno01de8cuiCs-83" vertex="1">
          <mxGeometry y="52" width="430" height="20" as="geometry" />
        </mxCell>
        <mxCell id="kdGjKbwBno01de8cuiCs-86" value="- Product Table&#xa;- Environment Table&#xa;- Service Table&#xa;- Fiscal Table" style="text;align=left;verticalAlign=top;spacingLeft=4;spacingRight=4;overflow=hidden;rotatable=0;points=[[0,0.5],[1,0.5]];portConstraint=eastwest;rounded=0;shadow=0;html=0;" parent="kdGjKbwBno01de8cuiCs-83" vertex="1">
          <mxGeometry y="72" width="430" height="58" as="geometry" />
        </mxCell>
        <mxCell id="kdGjKbwBno01de8cuiCs-108" value="&#xa;- Customer Table: PowerQuery creates CustomerID for Multiple Customer Type&#xa;&#xa;Sample:&#xa;ResourceGroup, CustomerID,     CustomerType,         CustomerName) &#xa;                             0001                     Multiple                PTC All Customers &#xa;                             0002                     Multiple                Monitoring&#xa;                             A-M001                 Single                  Intel" style="text;align=left;verticalAlign=top;spacingLeft=4;spacingRight=4;overflow=hidden;rotatable=0;points=[[0,0.5],[1,0.5]];portConstraint=eastwest;rounded=0;shadow=0;html=0;" parent="kdGjKbwBno01de8cuiCs-83" vertex="1">
          <mxGeometry y="130" width="430" height="130" as="geometry" />
        </mxCell>
        <mxCell id="kdGjKbwBno01de8cuiCs-87" value="Save file" style="text;html=1;resizable=0;points=[];;align=center;verticalAlign=middle;labelBackgroundColor=none;rounded=0;shadow=0;strokeWidth=1;fontSize=12;" parent="WIyWlLk6GJQsqaUBKTNV-1" vertex="1" connectable="0">
          <mxGeometry x="800" y="670" as="geometry">
            <mxPoint x="-1" y="2" as="offset" />
          </mxGeometry>
        </mxCell>
        <mxCell id="kdGjKbwBno01de8cuiCs-90" value="Input (MetaProduct, MetaEnv)" style="text;html=1;resizable=0;points=[];;align=center;verticalAlign=middle;labelBackgroundColor=none;rounded=0;shadow=0;strokeWidth=1;fontSize=12;" parent="WIyWlLk6GJQsqaUBKTNV-1" vertex="1" connectable="0">
          <mxGeometry x="850" y="370" as="geometry">
            <mxPoint x="-2" y="10" as="offset" />
          </mxGeometry>
        </mxCell>
        <mxCell id="kdGjKbwBno01de8cuiCs-91" value="" style="endArrow=block;endSize=10;endFill=0;shadow=0;strokeWidth=1;rounded=0;edgeStyle=elbowEdgeStyle;elbow=vertical;" parent="WIyWlLk6GJQsqaUBKTNV-1" edge="1">
          <mxGeometry x="-0.25" y="170" width="160" relative="1" as="geometry">
            <mxPoint x="400" y="770" as="sourcePoint" />
            <mxPoint x="400" y="850" as="targetPoint" />
            <mxPoint as="offset" />
          </mxGeometry>
        </mxCell>
        <mxCell id="kdGjKbwBno01de8cuiCs-92" value="Python Script: mapCustomer.py" style="swimlane;fontStyle=2;align=center;verticalAlign=top;childLayout=stackLayout;horizontal=1;startSize=50;horizontalStack=0;resizeParent=1;resizeLast=0;collapsible=1;marginBottom=0;rounded=0;shadow=0;strokeWidth=1;" parent="WIyWlLk6GJQsqaUBKTNV-1" vertex="1">
          <mxGeometry x="170" y="850" width="440" height="310" as="geometry">
            <mxRectangle x="230" y="140" width="160" height="26" as="alternateBounds" />
          </mxGeometry>
        </mxCell>
        <mxCell id="kdGjKbwBno01de8cuiCs-93" value="- Input (Table 4): CSP, Scenario,...., ResourceGroup, SubscriptionID" style="text;align=left;verticalAlign=top;spacingLeft=4;spacingRight=4;overflow=hidden;rotatable=0;points=[[0,0.5],[1,0.5]];portConstraint=eastwest;" parent="kdGjKbwBno01de8cuiCs-92" vertex="1">
          <mxGeometry y="50" width="440" height="26" as="geometry" />
        </mxCell>
        <mxCell id="kdGjKbwBno01de8cuiCs-94" value="- Map Table 4 with Customer Table using ResourceGroup: Get CustomerID, &#xa;Customer Type&#xa;" style="text;align=left;verticalAlign=top;spacingLeft=4;spacingRight=4;overflow=hidden;rotatable=0;points=[[0,0.5],[1,0.5]];portConstraint=eastwest;" parent="kdGjKbwBno01de8cuiCs-92" vertex="1">
          <mxGeometry y="76" width="440" height="38" as="geometry" />
        </mxCell>
        <mxCell id="kdGjKbwBno01de8cuiCs-100" value="- Add column: Cost Type based on conditions&#xa; (e.g Direct Cost &lt;-&gt; Customer Type = Single, &#xa;        Shared Cost &lt;-&gt; Customer Type = Multiple) " style="text;align=left;verticalAlign=top;spacingLeft=4;spacingRight=4;overflow=hidden;rotatable=0;points=[[0,0.5],[1,0.5]];portConstraint=eastwest;" parent="kdGjKbwBno01de8cuiCs-92" vertex="1">
          <mxGeometry y="114" width="440" height="56" as="geometry" />
        </mxCell>
        <mxCell id="kdGjKbwBno01de8cuiCs-96" value="- Group By: CSP, Scenario, Category, Service, ChargeType, SubscriptionID,&#xa;CustomerID, Cost Type, ProductID, EnvironmentID  (aggregate:&#xa;OnDemandCost, Savings, NetAmortizedCost)" style="text;align=left;verticalAlign=top;spacingLeft=4;spacingRight=4;overflow=hidden;rotatable=0;points=[[0,0.5],[1,0.5]];portConstraint=eastwest;" parent="kdGjKbwBno01de8cuiCs-92" vertex="1">
          <mxGeometry y="170" width="440" height="60" as="geometry" />
        </mxCell>
        <mxCell id="kdGjKbwBno01de8cuiCs-123" value="" style="line;html=1;strokeWidth=1;align=left;verticalAlign=middle;spacingTop=-1;spacingLeft=3;spacingRight=3;rotatable=0;labelPosition=right;points=[];portConstraint=eastwest;" parent="kdGjKbwBno01de8cuiCs-92" vertex="1">
          <mxGeometry y="230" width="440" height="10" as="geometry" />
        </mxCell>
        <mxCell id="kdGjKbwBno01de8cuiCs-101" value="- Output:: Fact Table includes all columns: Month, CSP, Scenario, Category, &#xa;Service, ChargeType, SubscriptionID,CustomerID, Cost Type, ProductID, &#xa;EnvironmentID, OnDemandCost, Savings, NetAmortizedCost" style="text;align=left;verticalAlign=top;spacingLeft=4;spacingRight=4;overflow=hidden;rotatable=0;points=[[0,0.5],[1,0.5]];portConstraint=eastwest;" parent="kdGjKbwBno01de8cuiCs-92" vertex="1">
          <mxGeometry y="240" width="440" height="70" as="geometry" />
        </mxCell>
        <mxCell id="kdGjKbwBno01de8cuiCs-99" value="Input&lt;br&gt;(Table 4)" style="text;html=1;resizable=0;points=[];;align=center;verticalAlign=middle;labelBackgroundColor=none;rounded=0;shadow=0;strokeWidth=1;fontSize=12;" parent="WIyWlLk6GJQsqaUBKTNV-1" vertex="1" connectable="0">
          <mxGeometry x="370" y="810" as="geometry">
            <mxPoint y="2" as="offset" />
          </mxGeometry>
        </mxCell>
        <mxCell id="kdGjKbwBno01de8cuiCs-109" value="" style="endArrow=open;shadow=0;strokeWidth=1;rounded=0;endFill=1;edgeStyle=elbowEdgeStyle;elbow=vertical;" parent="WIyWlLk6GJQsqaUBKTNV-1" edge="1">
          <mxGeometry x="0.5" y="41" relative="1" as="geometry">
            <mxPoint x="1040" y="800" as="sourcePoint" />
            <mxPoint x="400" y="800" as="targetPoint" />
            <mxPoint x="-40" y="32" as="offset" />
            <Array as="points">
              <mxPoint x="1030" y="800" />
              <mxPoint x="820" y="800" />
            </Array>
          </mxGeometry>
        </mxCell>
        <mxCell id="kdGjKbwBno01de8cuiCs-110" value="Input: Customer Table" style="text;html=1;resizable=0;points=[];;align=center;verticalAlign=middle;labelBackgroundColor=none;rounded=0;shadow=0;strokeWidth=1;fontSize=12;" parent="kdGjKbwBno01de8cuiCs-109" vertex="1" connectable="0">
          <mxGeometry x="0.5" y="49" relative="1" as="geometry">
            <mxPoint x="66" y="-59" as="offset" />
          </mxGeometry>
        </mxCell>
        <mxCell id="kdGjKbwBno01de8cuiCs-116" value="" style="endArrow=open;shadow=0;strokeWidth=1;rounded=0;endFill=1;edgeStyle=elbowEdgeStyle;elbow=vertical;" parent="WIyWlLk6GJQsqaUBKTNV-1" edge="1">
          <mxGeometry x="0.5" y="41" relative="1" as="geometry">
            <mxPoint x="610" y="690" as="sourcePoint" />
            <mxPoint x="1040" y="691" as="targetPoint" />
            <mxPoint x="-40" y="32" as="offset" />
          </mxGeometry>
        </mxCell>
        <mxCell id="kdGjKbwBno01de8cuiCs-119" value="" style="endArrow=open;shadow=0;strokeWidth=1;rounded=0;endFill=1;edgeStyle=elbowEdgeStyle;elbow=vertical;" parent="WIyWlLk6GJQsqaUBKTNV-1" edge="1">
          <mxGeometry x="0.5" y="41" relative="1" as="geometry">
            <mxPoint x="1590" y="440" as="sourcePoint" />
            <mxPoint x="1590" y="750" as="targetPoint" />
            <mxPoint x="-40" y="32" as="offset" />
          </mxGeometry>
        </mxCell>
        <mxCell id="kdGjKbwBno01de8cuiCs-120" value="" style="endArrow=open;shadow=0;strokeWidth=1;rounded=0;endFill=1;edgeStyle=elbowEdgeStyle;elbow=vertical;" parent="WIyWlLk6GJQsqaUBKTNV-1" edge="1">
          <mxGeometry x="0.5" y="41" relative="1" as="geometry">
            <mxPoint x="1590" y="750" as="sourcePoint" />
            <mxPoint x="1480" y="750" as="targetPoint" />
            <mxPoint x="-40" y="32" as="offset" />
          </mxGeometry>
        </mxCell>
        <mxCell id="kdGjKbwBno01de8cuiCs-122" value="Input (&lt;span style=&quot;text-align: left;&quot;&gt;CustomerMappingFileFromAlina&lt;/span&gt;)" style="text;html=1;resizable=0;points=[];;align=center;verticalAlign=middle;labelBackgroundColor=none;rounded=0;shadow=0;strokeWidth=1;fontSize=12;" parent="WIyWlLk6GJQsqaUBKTNV-1" vertex="1" connectable="0">
          <mxGeometry x="1460" y="420" as="geometry">
            <mxPoint x="-2" y="10" as="offset" />
          </mxGeometry>
        </mxCell>
        <mxCell id="kdGjKbwBno01de8cuiCs-125" value="Folder" style="swimlane;fontStyle=2;align=center;verticalAlign=top;childLayout=stackLayout;horizontal=1;startSize=26;horizontalStack=0;resizeParent=1;resizeLast=0;collapsible=1;marginBottom=0;rounded=0;shadow=0;strokeWidth=1;" parent="WIyWlLk6GJQsqaUBKTNV-1" vertex="1">
          <mxGeometry x="790" y="1079" width="160" height="90" as="geometry">
            <mxRectangle x="230" y="140" width="160" height="26" as="alternateBounds" />
          </mxGeometry>
        </mxCell>
        <mxCell id="kdGjKbwBno01de8cuiCs-127" value="       AzureAmortFinal" style="text;align=left;verticalAlign=top;spacingLeft=4;spacingRight=4;overflow=hidden;rotatable=0;points=[[0,0.5],[1,0.5]];portConstraint=eastwest;" parent="kdGjKbwBno01de8cuiCs-125" vertex="1">
          <mxGeometry y="26" width="160" height="26" as="geometry" />
        </mxCell>
        <mxCell id="kdGjKbwBno01de8cuiCs-133" value="" style="line;html=1;strokeWidth=1;align=left;verticalAlign=middle;spacingTop=-1;spacingLeft=3;spacingRight=3;rotatable=0;labelPosition=right;points=[];portConstraint=eastwest;" parent="kdGjKbwBno01de8cuiCs-125" vertex="1">
          <mxGeometry y="52" width="160" height="10" as="geometry" />
        </mxCell>
        <mxCell id="kdGjKbwBno01de8cuiCs-134" value="Append all monthly files&#xa;" style="text;align=left;verticalAlign=top;spacingLeft=4;spacingRight=4;overflow=hidden;rotatable=0;points=[[0,0.5],[1,0.5]];portConstraint=eastwest;" parent="kdGjKbwBno01de8cuiCs-125" vertex="1">
          <mxGeometry y="62" width="160" height="26" as="geometry" />
        </mxCell>
        <mxCell id="kdGjKbwBno01de8cuiCs-129" value="" style="endArrow=open;shadow=0;strokeWidth=1;rounded=0;endFill=1;edgeStyle=elbowEdgeStyle;elbow=vertical;" parent="WIyWlLk6GJQsqaUBKTNV-1" edge="1">
          <mxGeometry x="0.5" y="41" relative="1" as="geometry">
            <mxPoint x="610" y="1118.52" as="sourcePoint" />
            <mxPoint x="790" y="1120" as="targetPoint" />
            <mxPoint x="-40" y="32" as="offset" />
          </mxGeometry>
        </mxCell>
        <mxCell id="kdGjKbwBno01de8cuiCs-130" value="Save file" style="text;html=1;resizable=0;points=[];;align=center;verticalAlign=middle;labelBackgroundColor=none;rounded=0;shadow=0;strokeWidth=1;fontSize=12;" parent="kdGjKbwBno01de8cuiCs-129" vertex="1" connectable="0">
          <mxGeometry x="0.5" y="49" relative="1" as="geometry">
            <mxPoint x="-38" y="40" as="offset" />
          </mxGeometry>
        </mxCell>
        <mxCell id="kdGjKbwBno01de8cuiCs-131" value="" style="endArrow=open;shadow=0;strokeWidth=1;rounded=0;endFill=1;edgeStyle=elbowEdgeStyle;elbow=vertical;exitX=0.568;exitY=1;exitDx=0;exitDy=0;exitPerimeter=0;" parent="WIyWlLk6GJQsqaUBKTNV-1" source="kdGjKbwBno01de8cuiCs-101" edge="1">
          <mxGeometry x="0.5" y="41" relative="1" as="geometry">
            <mxPoint x="360" y="1210.0000000000002" as="sourcePoint" />
            <mxPoint x="420" y="1240" as="targetPoint" />
            <mxPoint x="-40" y="32" as="offset" />
          </mxGeometry>
        </mxCell>
        <mxCell id="kdGjKbwBno01de8cuiCs-135" value="Postgres SQL" style="swimlane;fontStyle=2;align=center;verticalAlign=top;childLayout=stackLayout;horizontal=1;startSize=26;horizontalStack=0;resizeParent=1;resizeLast=0;collapsible=1;marginBottom=0;rounded=0;shadow=0;strokeWidth=1;" parent="WIyWlLk6GJQsqaUBKTNV-1" vertex="1">
          <mxGeometry x="350" y="1240" width="160" height="200" as="geometry">
            <mxRectangle x="230" y="140" width="160" height="26" as="alternateBounds" />
          </mxGeometry>
        </mxCell>
        <mxCell id="kdGjKbwBno01de8cuiCs-136" value="Fact Table" style="text;align=left;verticalAlign=top;spacingLeft=4;spacingRight=4;overflow=hidden;rotatable=0;points=[[0,0.5],[1,0.5]];portConstraint=eastwest;" parent="kdGjKbwBno01de8cuiCs-135" vertex="1">
          <mxGeometry y="26" width="160" height="26" as="geometry" />
        </mxCell>
        <mxCell id="kdGjKbwBno01de8cuiCs-137" value="" style="line;html=1;strokeWidth=1;align=left;verticalAlign=middle;spacingTop=-1;spacingLeft=3;spacingRight=3;rotatable=0;labelPosition=right;points=[];portConstraint=eastwest;" parent="kdGjKbwBno01de8cuiCs-135" vertex="1">
          <mxGeometry y="52" width="160" height="10" as="geometry" />
        </mxCell>
        <mxCell id="kdGjKbwBno01de8cuiCs-142" value="Product Table" style="text;align=left;verticalAlign=top;spacingLeft=4;spacingRight=4;overflow=hidden;rotatable=0;points=[[0,0.5],[1,0.5]];portConstraint=eastwest;" parent="kdGjKbwBno01de8cuiCs-135" vertex="1">
          <mxGeometry y="62" width="160" height="26" as="geometry" />
        </mxCell>
        <mxCell id="kdGjKbwBno01de8cuiCs-143" value="Environment Table" style="text;align=left;verticalAlign=top;spacingLeft=4;spacingRight=4;overflow=hidden;rotatable=0;points=[[0,0.5],[1,0.5]];portConstraint=eastwest;" parent="kdGjKbwBno01de8cuiCs-135" vertex="1">
          <mxGeometry y="88" width="160" height="26" as="geometry" />
        </mxCell>
        <mxCell id="kdGjKbwBno01de8cuiCs-144" value="Service Table" style="text;align=left;verticalAlign=top;spacingLeft=4;spacingRight=4;overflow=hidden;rotatable=0;points=[[0,0.5],[1,0.5]];portConstraint=eastwest;" parent="kdGjKbwBno01de8cuiCs-135" vertex="1">
          <mxGeometry y="114" width="160" height="26" as="geometry" />
        </mxCell>
        <mxCell id="kdGjKbwBno01de8cuiCs-145" value="Customer Table" style="text;align=left;verticalAlign=top;spacingLeft=4;spacingRight=4;overflow=hidden;rotatable=0;points=[[0,0.5],[1,0.5]];portConstraint=eastwest;" parent="kdGjKbwBno01de8cuiCs-135" vertex="1">
          <mxGeometry y="140" width="160" height="26" as="geometry" />
        </mxCell>
        <mxCell id="kdGjKbwBno01de8cuiCs-146" value="Fiscal Table" style="text;align=left;verticalAlign=top;spacingLeft=4;spacingRight=4;overflow=hidden;rotatable=0;points=[[0,0.5],[1,0.5]];portConstraint=eastwest;" parent="kdGjKbwBno01de8cuiCs-135" vertex="1">
          <mxGeometry y="166" width="160" height="26" as="geometry" />
        </mxCell>
        <mxCell id="kdGjKbwBno01de8cuiCs-139" value="Load to Postgres SQL" style="text;html=1;resizable=0;points=[];;align=center;verticalAlign=middle;labelBackgroundColor=none;rounded=0;shadow=0;strokeWidth=1;fontSize=12;" parent="WIyWlLk6GJQsqaUBKTNV-1" vertex="1" connectable="0">
          <mxGeometry x="470.00190476190505" y="1199.9985714285715" as="geometry">
            <mxPoint x="16" y="4" as="offset" />
          </mxGeometry>
        </mxCell>
        <mxCell id="kdGjKbwBno01de8cuiCs-140" value="" style="endArrow=open;shadow=0;strokeWidth=1;rounded=0;endFill=1;edgeStyle=elbowEdgeStyle;elbow=vertical;exitX=0.557;exitY=0.993;exitDx=0;exitDy=0;exitPerimeter=0;" parent="WIyWlLk6GJQsqaUBKTNV-1" source="kdGjKbwBno01de8cuiCs-108" edge="1">
          <mxGeometry x="0.5" y="41" relative="1" as="geometry">
            <mxPoint x="1280" y="970.0000000000002" as="sourcePoint" />
            <mxPoint x="430" y="1440" as="targetPoint" />
            <mxPoint x="-40" y="32" as="offset" />
            <Array as="points">
              <mxPoint x="1270" y="1490" />
            </Array>
          </mxGeometry>
        </mxCell>
        <mxCell id="kdGjKbwBno01de8cuiCs-141" value="Load to Postgres SQL" style="text;html=1;resizable=0;points=[];;align=center;verticalAlign=middle;labelBackgroundColor=none;rounded=0;shadow=0;strokeWidth=1;fontSize=12;" parent="WIyWlLk6GJQsqaUBKTNV-1" vertex="1" connectable="0">
          <mxGeometry x="810.001904761905" y="1469.9985714285715" as="geometry">
            <mxPoint x="16" y="4" as="offset" />
          </mxGeometry>
        </mxCell>
        <mxCell id="kdGjKbwBno01de8cuiCs-147" value="" style="endArrow=open;shadow=0;strokeWidth=1;rounded=0;endFill=1;edgeStyle=elbowEdgeStyle;elbow=vertical;entryX=-0.02;entryY=0.128;entryDx=0;entryDy=0;entryPerimeter=0;" parent="WIyWlLk6GJQsqaUBKTNV-1" target="kdGjKbwBno01de8cuiCs-151" edge="1">
          <mxGeometry x="0.5" y="41" relative="1" as="geometry">
            <mxPoint x="950" y="1146" as="sourcePoint" />
            <mxPoint x="1010" y="1140" as="targetPoint" />
            <mxPoint x="-40" y="32" as="offset" />
          </mxGeometry>
        </mxCell>
        <mxCell id="kdGjKbwBno01de8cuiCs-148" value="Load to Excel" style="text;html=1;resizable=0;points=[];;align=center;verticalAlign=middle;labelBackgroundColor=none;rounded=0;shadow=0;strokeWidth=1;fontSize=12;" parent="kdGjKbwBno01de8cuiCs-147" vertex="1" connectable="0">
          <mxGeometry x="0.5" y="49" relative="1" as="geometry">
            <mxPoint x="-26" y="34" as="offset" />
          </mxGeometry>
        </mxCell>
        <mxCell id="kdGjKbwBno01de8cuiCs-149" value="" style="endArrow=open;shadow=0;strokeWidth=1;rounded=0;endFill=1;edgeStyle=elbowEdgeStyle;elbow=vertical;" parent="WIyWlLk6GJQsqaUBKTNV-1" edge="1">
          <mxGeometry x="0.5" y="41" relative="1" as="geometry">
            <mxPoint x="1120" y="860" as="sourcePoint" />
            <mxPoint x="1120" y="1120" as="targetPoint" />
            <mxPoint x="-40" y="32" as="offset" />
            <Array as="points">
              <mxPoint x="980" y="1060" />
            </Array>
          </mxGeometry>
        </mxCell>
        <mxCell id="kdGjKbwBno01de8cuiCs-150" value="Load to Excel" style="text;html=1;resizable=0;points=[];;align=center;verticalAlign=middle;labelBackgroundColor=none;rounded=0;shadow=0;strokeWidth=1;fontSize=12;" parent="WIyWlLk6GJQsqaUBKTNV-1" vertex="1" connectable="0">
          <mxGeometry x="1079.9980952380954" y="980.0009523809525" as="geometry" />
        </mxCell>
        <mxCell id="kdGjKbwBno01de8cuiCs-151" value="Data model in Excel" style="swimlane;fontStyle=2;align=center;verticalAlign=top;childLayout=stackLayout;horizontal=1;startSize=26;horizontalStack=0;resizeParent=1;resizeLast=0;collapsible=1;marginBottom=0;rounded=0;shadow=0;strokeWidth=1;" parent="WIyWlLk6GJQsqaUBKTNV-1" vertex="1">
          <mxGeometry x="1040" y="1120" width="160" height="200" as="geometry">
            <mxRectangle x="230" y="140" width="160" height="26" as="alternateBounds" />
          </mxGeometry>
        </mxCell>
        <mxCell id="kdGjKbwBno01de8cuiCs-152" value="Fact Table" style="text;align=left;verticalAlign=top;spacingLeft=4;spacingRight=4;overflow=hidden;rotatable=0;points=[[0,0.5],[1,0.5]];portConstraint=eastwest;" parent="kdGjKbwBno01de8cuiCs-151" vertex="1">
          <mxGeometry y="26" width="160" height="26" as="geometry" />
        </mxCell>
        <mxCell id="kdGjKbwBno01de8cuiCs-153" value="" style="line;html=1;strokeWidth=1;align=left;verticalAlign=middle;spacingTop=-1;spacingLeft=3;spacingRight=3;rotatable=0;labelPosition=right;points=[];portConstraint=eastwest;" parent="kdGjKbwBno01de8cuiCs-151" vertex="1">
          <mxGeometry y="52" width="160" height="10" as="geometry" />
        </mxCell>
        <mxCell id="kdGjKbwBno01de8cuiCs-154" value="Product Table" style="text;align=left;verticalAlign=top;spacingLeft=4;spacingRight=4;overflow=hidden;rotatable=0;points=[[0,0.5],[1,0.5]];portConstraint=eastwest;" parent="kdGjKbwBno01de8cuiCs-151" vertex="1">
          <mxGeometry y="62" width="160" height="26" as="geometry" />
        </mxCell>
        <mxCell id="kdGjKbwBno01de8cuiCs-155" value="Environment Table" style="text;align=left;verticalAlign=top;spacingLeft=4;spacingRight=4;overflow=hidden;rotatable=0;points=[[0,0.5],[1,0.5]];portConstraint=eastwest;" parent="kdGjKbwBno01de8cuiCs-151" vertex="1">
          <mxGeometry y="88" width="160" height="26" as="geometry" />
        </mxCell>
        <mxCell id="kdGjKbwBno01de8cuiCs-156" value="Service Table" style="text;align=left;verticalAlign=top;spacingLeft=4;spacingRight=4;overflow=hidden;rotatable=0;points=[[0,0.5],[1,0.5]];portConstraint=eastwest;" parent="kdGjKbwBno01de8cuiCs-151" vertex="1">
          <mxGeometry y="114" width="160" height="26" as="geometry" />
        </mxCell>
        <mxCell id="kdGjKbwBno01de8cuiCs-157" value="Customer Table" style="text;align=left;verticalAlign=top;spacingLeft=4;spacingRight=4;overflow=hidden;rotatable=0;points=[[0,0.5],[1,0.5]];portConstraint=eastwest;" parent="kdGjKbwBno01de8cuiCs-151" vertex="1">
          <mxGeometry y="140" width="160" height="26" as="geometry" />
        </mxCell>
        <mxCell id="kdGjKbwBno01de8cuiCs-158" value="Fiscal Table" style="text;align=left;verticalAlign=top;spacingLeft=4;spacingRight=4;overflow=hidden;rotatable=0;points=[[0,0.5],[1,0.5]];portConstraint=eastwest;" parent="kdGjKbwBno01de8cuiCs-151" vertex="1">
          <mxGeometry y="166" width="160" height="26" as="geometry" />
        </mxCell>
        <mxCell id="kdGjKbwBno01de8cuiCs-159" value="" style="endArrow=open;shadow=0;strokeWidth=1;rounded=0;endFill=1;edgeStyle=elbowEdgeStyle;elbow=vertical;exitX=0.568;exitY=1;exitDx=0;exitDy=0;exitPerimeter=0;" parent="WIyWlLk6GJQsqaUBKTNV-1" edge="1">
          <mxGeometry x="0.5" y="41" relative="1" as="geometry">
            <mxPoint x="350.00000000000006" y="1260.0000000000002" as="sourcePoint" />
            <mxPoint x="230" y="1260" as="targetPoint" />
            <mxPoint x="-40" y="32" as="offset" />
          </mxGeometry>
        </mxCell>
        <mxCell id="kdGjKbwBno01de8cuiCs-160" value="Data Model in Power Query" style="swimlane;fontStyle=2;align=center;verticalAlign=top;childLayout=stackLayout;horizontal=1;startSize=26;horizontalStack=0;resizeParent=1;resizeLast=0;collapsible=1;marginBottom=0;rounded=0;shadow=0;strokeWidth=1;" parent="WIyWlLk6GJQsqaUBKTNV-1" vertex="1">
          <mxGeometry x="70" y="1250" width="160" height="30" as="geometry">
            <mxRectangle x="230" y="140" width="160" height="26" as="alternateBounds" />
          </mxGeometry>
        </mxCell>
        <mxCell id="kdGjKbwBno01de8cuiCs-164" value="" style="shape=image;verticalLabelPosition=bottom;labelBackgroundColor=default;verticalAlign=top;aspect=fixed;imageAspect=0;image=data:image/jpeg,/9j/4AAQSkZJRgABAQAAAQABAAD/2wCEAAkGBxAPDw0NDg4UDQ8NEw4ODw8NDw8QDQ8QFhcXGRYSFhcZICkhGRsnHxYYJD8iKC4sLzAvGCA1OjUtOSkuLywBCgoKDg0OGxAQGzknICYuLiwsMS4uLi4uLi4uLC4sLi4wLiwuLCwuLC4uLi4uLi4uLCwuLC4uLiwsLi4sLi4uLv/AABEIAOsA1gMBIgACEQEDEQH/xAAcAAEAAQUBAQAAAAAAAAAAAAAAAQIEBQYHAwj/xABKEAACAQMAAwoICA0EAwAAAAAAAQIDBBEFITEGEhMyQVFSYXGRBxSBk6Gx0dIVFiIzU1RysxcjJDRCYnN0gpKisvA1lMHhQ2Px/8QAGwEBAAIDAQEAAAAAAAAAAAAAAAECAwQFBgf/xAA1EQACAQICBggFBAMBAAAAAAAAAQIDEQQhEjFRYZGhBRQyQXGBscETFSLh8COi0fEzQlIk/9oADAMBAAIRAxEAPwDuIAAAAAAAAB43FeFOMp1JKEI65Sm0orysrnNRTlJ4UU229iS2s5Nuj05O8qt5aowb4KnyJdNrpP0ZwZqNF1XuMNasqS3m2aR3d0YPe0Kcq76UnwdPyZWX3I1+73bXs+JKFFcnB0033zya22elS2qRjv5Upxh0pQkod7WDoRw9OPdx/LHPliKku/h+XLuvp+8nxrur/BUlBd0cFnUvKsuNWqS+1Um/WzwbIbM2ilqXJGJyk9b5smUm9rz2kKo1sk12NopbKWwQXMNI148WvVj9mpUj6mXdDdPfU+Ld1P42qn96ZiGyGyrhF60WU5beZt9h4QrqDSrQp148urgqnetXoN10Dunt7z5NOThVxl0avyanW48kl2eXBxliM3FqUW4yi1KMotqUWtjTWxmGphoS1ZMzwxM468/zafQYNP3DbqXdxdvXa8Zprjalw0F+ljkkuVdeVypbgc2cHB6LOjCamroAAqWAAAAAAAAAAAAAAAAAAMFuzrunYXDW2ajT8k5JS9DZyhnTvCE/yF/tKXrOYNnSwa/T8zm4x/qeRv24HQlPg1e1Iqc5SkqO+WVCMXhyS6TaevmXWzdWs6nrT1NPYav4PtIRqWioZ/GW7mpR5XGUnKMuzW15DajSxDbqO5u4eyprR/Gcv3d6EhbVKdajHeUq++zBaowqLGzmTT2cmGaq2bv4TdIxlKhaxacqe+q1P1W1iMe3GX3c5ozZ0aDbprSOdXSVRpBspbDZQ2ZjCGylkspYJDIbDZS2QC40bfytq1G5hxqMlPHSX6UexrK8p3ulUU4xnF5jNKUXzprKZ88tndtzLzY2Le3xe3+7iaWMWUX5G9g3rRlAAaJugAAAAAAAAAAAAAAAAAGs+EL8xf7Sl6zlzZ1Pd5RnUsnGnTlVlwlN72nCU5Yy9eFrOdPQ119Ur+Yq+w6WEaVPzOdi4t1Ml3ItbW6qUZqpSnKnOOyUHh9nWuoy9XdlfyjvOH3vI5Rp01N+XGryYLB6FuvqdfzFX3Sl6Fu/qdfzFX3TPJQlm7GCPxFkr8yxnNtuUm5OTbbk25Nva23tZQ2X70Ld/U6/+3q+6Q9CXf1Ov/t6vultKO0r8OWzkY5shl/PQ10k27Sukk226FVJJbW3vdRjmwmnqDTWtBshslspbBAbKGw2UtgkNndty/5hYfu9t93E4O2d43L/AJhYfu9t93E08b2V4m5hNbMqADQN4AAAAAAAAAAGG3Q6fp2cE5fLqzzwdJPDfW3yR6yYxcnZESkoq7MtOainKTUUtbbeEl1sw1zursqbw7hTf/qjOou+Ka9JzfS2l691LfVqjks5jTjqpR7I/wDLy+sx7N6GCWub4GjPGv8A1XE6f8eLLpVPNSI+PNl0qnmpHL2ylsydTp7zH1upu4HUfj3Y9Kp5qQ+Pdj0qnmpHLGyGx1OnvHW6m46n8fLHpVPNSHx8selU81I5U2UNkdUp7x1upuOr/H2x6VTzUiPj/YdKp5qRyhspY6pT3k9bqbjqOkN3NjOjWpxlU306dSEc0pYy4tI5aGylsy06UafZMVSrKprDZQ2S2UtmQoQ2UtktlLYBDZ3ncu8aPsOq2tvu4nBTvG5n/T7L92t/u0aWNf0I3MH2mX/jsP8AEPHYf4jHA8gulK+7h9zs/AiZHxuHO+5ntCaexp9hiBGbTynh9ReHStRP64prdl6toh0F3MzQLa0r79a9Ult6y5O3TqRqRU46mazTTswAC5BaaRvI29KpXnxacXJ875orrbwvKcg0lfTuKs69V5lN56orkiupG6+Ei8ap0bZP5xyqz7I6op+Vt/wmgM6WDp2jpd79Dm4upeWjs9QylslspbNs1CGylslshsAhspbJbKWyCQ2UMMpYJDIYbIbADZQ2GylsgkNlLYbKWwA2UsMAA7xuZ/0+y/drf7tHBzvO5xYsLJPU1bW+er8WjSx3Y4+huYPtMoIyCMnz3uPQAjIyQQSV0au8kpLk9POZlPOtcpgcmWsKmaa6so6/RFe0pU335r35W4GviIZKRdAA7xqHLd3tzv76pHkowp0l3b9/3+g1xsvtO1t/dXU9uatXHYpNL0JGPbO1TVoJbji1Hebe8NlLYbIbLlA2UthspbIJDZQ2S2UsEhlLYYbAIbKWyWyhsgENkNhspbBIbKWw2QAAAlybc6kltb5iAXOjbKVzWo20ONXnGmscie2XYll+Q75XSp0t5HUklCK6sYx3Go+D3cnK2XjdzHe16i3tOm9tGm9rfNN+hauVo2W9rb6WFsj6es4XS+MUKbSe1LxevgdXA0Gs3+ItskZGSDxh2BkjIyUlSSS/0VPXOPY/aY4utHSxVS5016MmzgKmjiYeNuOXuVqq8GZkAHrzmnC6099KUuk5PveTzbK6sd7KUei2u5nm2dw4YbKWw2UtgBsobJbKGAGQyUm2kk220kkm229iS5WdH3LbhoQUa97FVKjw40Hh0qf2+ScurZ27THUqRpq7MlOnKo7I0XRuhbq6129vOpHp4Uaf88sJ95nYeDu+ksudGHVKrUz/AExZ0+dzCHyduNWFsXUeLv3yRXlZx63TFOErXXBs6NPAK2efI5w/Bve/S2/na3uEPwbXv0tv52t7h0jx6XR9Y8el0PWYfnlPb+1mTqC2czmv4Nb76W387W9wh+DS++lt/O1vcOl+PS6HrHj0uj6x88p7f2sdQWzmcz/BpffS2/nK3uEfg0vvpbfzlb3Dpnj0uj6x4/Lo+sj55T2/tZPUFs5nOrbwYXLf465pU1z0o1Kr7mom36A3HWlk1VSdatH/AM1fDcPsLZHt29ZlJX8uRY7y2q1pS4zb/wA5jXr9OxcbRu+S/nkZKeBUXe3uXN3eZzGGzllzllkZIPO18ROtLSn/AF4HQhBRVkMkAg1y4yQCMlblge1m/wAZT8npPDJ6WfzlP7S9Zei/1YeK9SJdlmwgA9wck4np2lvLq6hs3tWtjs3za9GCwbNi3f23B39V8laNOqu7ev0wZrjZ2abvBPccaorTa3kNlLZLZQy5QMpYZKi21GKzKTSiudvUkAb74NdAqWb+rHOHKFunsytUqvriuyXUbxd3H6EfKxZ20ba3p0YbKMIwXW0sZfa/WWR5PpfGSvoxev0+/wDJ38JRUY+HqAAedN4AEZAJIyQRki5NiSMkZIyVuTYkpyMkFGyQRkEFSwIBGSpIyRkZIyVuSMlxo5Zqw6s+hFrkyOhYZlOXR9b/APhsYGGniacd6fDP2KVnowbMwAD2xyjQvChZ/JtrlLiuVGX8Xyo+T5Mu8582dt05o5XVvWt3q4SPyZP9Ga1xl5GkcTr0pU5Tpzi4zg3CUXtUk8NHSwk7w0dhzcXC09LaebZDDKWbRrBsvNBrN1Zp8te3X9cSybLzQT/K7L9vb/3xKy7L8C0O0juF9xH2oxxkb/idxjjwnSf+fyXqz0lHsgAg5xmGSBkpyVuTYnJGSCMlbk2JIyQRkrcsCAQUbJSJIyRkjJUkZIyMkZKtlhkjJJBVskgzui6W9prO2fy35dnowYe1ocJOMOR631I2U7vQlC8pVnqX0r34avNmpi55KAAB6Q0AaXu33KO5zdWyXjCSU4akqqWxp9NbOtdiN0BeE3B3RWcFNWZ8/VYShKUJxcJReJRmnGUXzNPWmUNncdKaEtrpflFCNRpYU9caiXMpxw0vKYGt4O7KTypVoLmjUg1/VFs3o4uDX1ZGhLCTTyfscqbLvQL/ACuy/b2/98To/wCDez+luP56XuFdr4PrSlUp1oVa++pTp1YqU6W9coSUkniGzUTLFU2mvYRw1RNPLibRf8TuMbkyWkOI/IYzJ4vpT/P5L3O7Q7IIyMkHMM4yQRkgq2STkgmCy4rnMn8HQ55fzf8ARsYfB1cQm6fdvKTqRhrMUQZX4Nhzy717B8GQ55d69hn+UYnYuJXrFPbyMTkjJl/g2HPLvXsI+C6fPLvXsI+T4ndx+xPWaf4jEZKcmZ+C6f63evYR8FU+eXevYV+TYrdx+xPWaf4jDZIM18FU+eXevYPgmnzy717CPk2K3cfsT1qmYUmEW2kllvYltMytGU/1n2v/AKLmjbwhxIpf8l6XQdZy+uSS3Zv0t58issXC2R46OtODjr40tpegHpaNKNGChDUjRlJyd2AAZCoAAAAAAAABa6R4j7UYvJlNI/NvtRisnm+ln/6PJe5u4fsDJGRkpOWZySCAVuWCeNa2o9vGqnT9J4ZKciNWcey2vBteg0U9Z7+N1On6SPG6nT9J4ZEU28JZb2Ja2yesVv8At8WToR2Ht47U6b7yPHKn0j7yZWNVLPB9zTfdtLYmpUxNPtuS8XJeojGEtVuR7+OVPpH3mdtm3CDetuKbfO8GtmyWvzdP7MPUjrdCVJzqT0m3ktbb797NbFxSirLvPYAHojRAAAAAAAAAAAAAAAAAALTSXzb7UYkzdxDfwlHla1GDZ5vpiLVaMu5r0efqjdwzvFoZIBGTkXNoEZGSMlWyRkjJGSMlGybE5MvoiklBT5Z5182HjHoMMZbRFwt7wT2ptrrT1nS6IcFiVpbHbxy520jBik/h5GUMPpmgk41Fqzql1vkZmDCaWuVJqEXlRy21s7Dt9MOCwslPy8f6vfdc1cMn8RWLA2S1+bp/Zh6ka7SpucowW2T/AMZs0YpJJbFqRz+gYO8592S89fJGfGSySKgAejNAAAAAAAAAAAAAAAAAAAGOvrPOZwWv9KPOZEGHEYeFeGhPVzT2r83PItCbi7o1tlOTO3FpCpra185jqujJritTXceZxHRdek/pWkt2vhr4XN+GIhLXkWWSMldWjKPGjjrefWeZy53g7Sye/I2VnqJyQCClyQAetO1qS4sM9eMLvZMIOo7RV/BX5INqObKXXm1hzbXM3qKIRbaSWW9iW0yNHRMnx5KK5o6/TyGSoW0Ka+Ssc/K2deh0TiKzTqvRW/N8O7z1bzVniYRyjmW+j7Lg1vpa5vuRfgHpqNGFGChBZI0JzcndgAGUqAAAAAAAAAAAAAAAAAAAAAAAADynQi9sU+1JnqCGrqzBbOyp9BE+J0+gvWXAMaoUl/ouC/gtpy2nnTpRjsSXYkegBlWSsioAAAAAAAAAAAAAAAAAAAAAAAAAAABDKGAV5Kd+UMoYB68IOEPJlIB7cIOEPEAHvwg4Q8CUAXG/JyW6K0AewPNFaAJAAAAAAAAAAAB//9k=;" parent="WIyWlLk6GJQsqaUBKTNV-1" vertex="1">
          <mxGeometry x="-470" y="40" width="45.53" height="50" as="geometry" />
        </mxCell>
        <mxCell id="kdGjKbwBno01de8cuiCs-165" value="" style="shape=image;verticalLabelPosition=bottom;labelBackgroundColor=default;verticalAlign=top;aspect=fixed;imageAspect=0;image=data:image/jpeg,/9j/4AAQSkZJRgABAQAAAQABAAD/2wCEAAkGBxAPDw0NDg4UDQ8NEw4ODw8NDw8QDQ8QFhcXGRYSFhcZICkhGRsnHxYYJD8iKC4sLzAvGCA1OjUtOSkuLywBCgoKDg0OGxAQGzknICYuLiwsMS4uLi4uLi4uLC4sLi4wLiwuLCwuLC4uLi4uLi4uLCwuLC4uLiwsLi4sLi4uLv/AABEIAOsA1gMBIgACEQEDEQH/xAAcAAEAAQUBAQAAAAAAAAAAAAAAAQIEBQYHAwj/xABKEAACAQMAAwoICA0EAwAAAAAAAQIDBBEFITEGEhMyQVFSYXGRBxSBk6Gx0dIVFiIzU1RysxcjJDRCYnN0gpKisvA1lMHhQ2Px/8QAGwEBAAIDAQEAAAAAAAAAAAAAAAECAwQFBgf/xAA1EQACAQICBggFBAMBAAAAAAAAAQIDEQQhEjFRYZGhBRQyQXGBscETFSLh8COi0fEzQlIk/9oADAMBAAIRAxEAPwDuIAAAAAAAAB43FeFOMp1JKEI65Sm0orysrnNRTlJ4UU229iS2s5Nuj05O8qt5aowb4KnyJdNrpP0ZwZqNF1XuMNasqS3m2aR3d0YPe0Kcq76UnwdPyZWX3I1+73bXs+JKFFcnB0033zya22elS2qRjv5Upxh0pQkod7WDoRw9OPdx/LHPliKku/h+XLuvp+8nxrur/BUlBd0cFnUvKsuNWqS+1Um/WzwbIbM2ilqXJGJyk9b5smUm9rz2kKo1sk12NopbKWwQXMNI148WvVj9mpUj6mXdDdPfU+Ld1P42qn96ZiGyGyrhF60WU5beZt9h4QrqDSrQp148urgqnetXoN10Dunt7z5NOThVxl0avyanW48kl2eXBxliM3FqUW4yi1KMotqUWtjTWxmGphoS1ZMzwxM468/zafQYNP3DbqXdxdvXa8Zprjalw0F+ljkkuVdeVypbgc2cHB6LOjCamroAAqWAAAAAAAAAAAAAAAAAAMFuzrunYXDW2ajT8k5JS9DZyhnTvCE/yF/tKXrOYNnSwa/T8zm4x/qeRv24HQlPg1e1Iqc5SkqO+WVCMXhyS6TaevmXWzdWs6nrT1NPYav4PtIRqWioZ/GW7mpR5XGUnKMuzW15DajSxDbqO5u4eyprR/Gcv3d6EhbVKdajHeUq++zBaowqLGzmTT2cmGaq2bv4TdIxlKhaxacqe+q1P1W1iMe3GX3c5ozZ0aDbprSOdXSVRpBspbDZQ2ZjCGylkspYJDIbDZS2QC40bfytq1G5hxqMlPHSX6UexrK8p3ulUU4xnF5jNKUXzprKZ88tndtzLzY2Le3xe3+7iaWMWUX5G9g3rRlAAaJugAAAAAAAAAAAAAAAAAGs+EL8xf7Sl6zlzZ1Pd5RnUsnGnTlVlwlN72nCU5Yy9eFrOdPQ119Ur+Yq+w6WEaVPzOdi4t1Ml3ItbW6qUZqpSnKnOOyUHh9nWuoy9XdlfyjvOH3vI5Rp01N+XGryYLB6FuvqdfzFX3Sl6Fu/qdfzFX3TPJQlm7GCPxFkr8yxnNtuUm5OTbbk25Nva23tZQ2X70Ld/U6/+3q+6Q9CXf1Ov/t6vultKO0r8OWzkY5shl/PQ10k27Sukk226FVJJbW3vdRjmwmnqDTWtBshslspbBAbKGw2UtgkNndty/5hYfu9t93E4O2d43L/AJhYfu9t93E08b2V4m5hNbMqADQN4AAAAAAAAAAGG3Q6fp2cE5fLqzzwdJPDfW3yR6yYxcnZESkoq7MtOainKTUUtbbeEl1sw1zursqbw7hTf/qjOou+Ka9JzfS2l691LfVqjks5jTjqpR7I/wDLy+sx7N6GCWub4GjPGv8A1XE6f8eLLpVPNSI+PNl0qnmpHL2ylsydTp7zH1upu4HUfj3Y9Kp5qQ+Pdj0qnmpHLGyGx1OnvHW6m46n8fLHpVPNSHx8selU81I5U2UNkdUp7x1upuOr/H2x6VTzUiPj/YdKp5qRyhspY6pT3k9bqbjqOkN3NjOjWpxlU306dSEc0pYy4tI5aGylsy06UafZMVSrKprDZQ2S2UtmQoQ2UtktlLYBDZ3ncu8aPsOq2tvu4nBTvG5n/T7L92t/u0aWNf0I3MH2mX/jsP8AEPHYf4jHA8gulK+7h9zs/AiZHxuHO+5ntCaexp9hiBGbTynh9ReHStRP64prdl6toh0F3MzQLa0r79a9Ult6y5O3TqRqRU46mazTTswAC5BaaRvI29KpXnxacXJ875orrbwvKcg0lfTuKs69V5lN56orkiupG6+Ei8ap0bZP5xyqz7I6op+Vt/wmgM6WDp2jpd79Dm4upeWjs9QylslspbNs1CGylslshsAhspbJbKWyCQ2UMMpYJDIYbIbADZQ2GylsgkNlLYbKWwA2UsMAA7xuZ/0+y/drf7tHBzvO5xYsLJPU1bW+er8WjSx3Y4+huYPtMoIyCMnz3uPQAjIyQQSV0au8kpLk9POZlPOtcpgcmWsKmaa6so6/RFe0pU335r35W4GviIZKRdAA7xqHLd3tzv76pHkowp0l3b9/3+g1xsvtO1t/dXU9uatXHYpNL0JGPbO1TVoJbji1Hebe8NlLYbIbLlA2UthspbIJDZQ2S2UsEhlLYYbAIbKWyWyhsgENkNhspbBIbKWw2QAAAlybc6kltb5iAXOjbKVzWo20ONXnGmscie2XYll+Q75XSp0t5HUklCK6sYx3Go+D3cnK2XjdzHe16i3tOm9tGm9rfNN+hauVo2W9rb6WFsj6es4XS+MUKbSe1LxevgdXA0Gs3+ItskZGSDxh2BkjIyUlSSS/0VPXOPY/aY4utHSxVS5016MmzgKmjiYeNuOXuVqq8GZkAHrzmnC6099KUuk5PveTzbK6sd7KUei2u5nm2dw4YbKWw2UtgBsobJbKGAGQyUm2kk220kkm229iS5WdH3LbhoQUa97FVKjw40Hh0qf2+ScurZ27THUqRpq7MlOnKo7I0XRuhbq6129vOpHp4Uaf88sJ95nYeDu+ksudGHVKrUz/AExZ0+dzCHyduNWFsXUeLv3yRXlZx63TFOErXXBs6NPAK2efI5w/Bve/S2/na3uEPwbXv0tv52t7h0jx6XR9Y8el0PWYfnlPb+1mTqC2czmv4Nb76W387W9wh+DS++lt/O1vcOl+PS6HrHj0uj6x88p7f2sdQWzmcz/BpffS2/nK3uEfg0vvpbfzlb3Dpnj0uj6x4/Lo+sj55T2/tZPUFs5nOrbwYXLf465pU1z0o1Kr7mom36A3HWlk1VSdatH/AM1fDcPsLZHt29ZlJX8uRY7y2q1pS4zb/wA5jXr9OxcbRu+S/nkZKeBUXe3uXN3eZzGGzllzllkZIPO18ROtLSn/AF4HQhBRVkMkAg1y4yQCMlblge1m/wAZT8npPDJ6WfzlP7S9Zei/1YeK9SJdlmwgA9wck4np2lvLq6hs3tWtjs3za9GCwbNi3f23B39V8laNOqu7ev0wZrjZ2abvBPccaorTa3kNlLZLZQy5QMpYZKi21GKzKTSiudvUkAb74NdAqWb+rHOHKFunsytUqvriuyXUbxd3H6EfKxZ20ba3p0YbKMIwXW0sZfa/WWR5PpfGSvoxev0+/wDJ38JRUY+HqAAedN4AEZAJIyQRki5NiSMkZIyVuTYkpyMkFGyQRkEFSwIBGSpIyRkZIyVuSMlxo5Zqw6s+hFrkyOhYZlOXR9b/APhsYGGniacd6fDP2KVnowbMwAD2xyjQvChZ/JtrlLiuVGX8Xyo+T5Mu8582dt05o5XVvWt3q4SPyZP9Ga1xl5GkcTr0pU5Tpzi4zg3CUXtUk8NHSwk7w0dhzcXC09LaebZDDKWbRrBsvNBrN1Zp8te3X9cSybLzQT/K7L9vb/3xKy7L8C0O0juF9xH2oxxkb/idxjjwnSf+fyXqz0lHsgAg5xmGSBkpyVuTYnJGSCMlbk2JIyQRkrcsCAQUbJSJIyRkjJUkZIyMkZKtlhkjJJBVskgzui6W9prO2fy35dnowYe1ocJOMOR631I2U7vQlC8pVnqX0r34avNmpi55KAAB6Q0AaXu33KO5zdWyXjCSU4akqqWxp9NbOtdiN0BeE3B3RWcFNWZ8/VYShKUJxcJReJRmnGUXzNPWmUNncdKaEtrpflFCNRpYU9caiXMpxw0vKYGt4O7KTypVoLmjUg1/VFs3o4uDX1ZGhLCTTyfscqbLvQL/ACuy/b2/98To/wCDez+luP56XuFdr4PrSlUp1oVa++pTp1YqU6W9coSUkniGzUTLFU2mvYRw1RNPLibRf8TuMbkyWkOI/IYzJ4vpT/P5L3O7Q7IIyMkHMM4yQRkgq2STkgmCy4rnMn8HQ55fzf8ARsYfB1cQm6fdvKTqRhrMUQZX4Nhzy717B8GQ55d69hn+UYnYuJXrFPbyMTkjJl/g2HPLvXsI+C6fPLvXsI+T4ndx+xPWaf4jEZKcmZ+C6f63evYR8FU+eXevYV+TYrdx+xPWaf4jDZIM18FU+eXevYPgmnzy717CPk2K3cfsT1qmYUmEW2kllvYltMytGU/1n2v/AKLmjbwhxIpf8l6XQdZy+uSS3Zv0t58issXC2R46OtODjr40tpegHpaNKNGChDUjRlJyd2AAZCoAAAAAAAABa6R4j7UYvJlNI/NvtRisnm+ln/6PJe5u4fsDJGRkpOWZySCAVuWCeNa2o9vGqnT9J4ZKciNWcey2vBteg0U9Z7+N1On6SPG6nT9J4ZEU28JZb2Ja2yesVv8At8WToR2Ht47U6b7yPHKn0j7yZWNVLPB9zTfdtLYmpUxNPtuS8XJeojGEtVuR7+OVPpH3mdtm3CDetuKbfO8GtmyWvzdP7MPUjrdCVJzqT0m3ktbb797NbFxSirLvPYAHojRAAAAAAAAAAAAAAAAAALTSXzb7UYkzdxDfwlHla1GDZ5vpiLVaMu5r0efqjdwzvFoZIBGTkXNoEZGSMlWyRkjJGSMlGybE5MvoiklBT5Z5182HjHoMMZbRFwt7wT2ptrrT1nS6IcFiVpbHbxy520jBik/h5GUMPpmgk41Fqzql1vkZmDCaWuVJqEXlRy21s7Dt9MOCwslPy8f6vfdc1cMn8RWLA2S1+bp/Zh6ka7SpucowW2T/AMZs0YpJJbFqRz+gYO8592S89fJGfGSySKgAejNAAAAAAAAAAAAAAAAAAAGOvrPOZwWv9KPOZEGHEYeFeGhPVzT2r83PItCbi7o1tlOTO3FpCpra185jqujJritTXceZxHRdek/pWkt2vhr4XN+GIhLXkWWSMldWjKPGjjrefWeZy53g7Sye/I2VnqJyQCClyQAetO1qS4sM9eMLvZMIOo7RV/BX5INqObKXXm1hzbXM3qKIRbaSWW9iW0yNHRMnx5KK5o6/TyGSoW0Ka+Ssc/K2deh0TiKzTqvRW/N8O7z1bzVniYRyjmW+j7Lg1vpa5vuRfgHpqNGFGChBZI0JzcndgAGUqAAAAAAAAAAAAAAAAAAAAAAAADynQi9sU+1JnqCGrqzBbOyp9BE+J0+gvWXAMaoUl/ouC/gtpy2nnTpRjsSXYkegBlWSsioAAAAAAAAAAAAAAAAAAAAAAAAAAABDKGAV5Kd+UMoYB68IOEPJlIB7cIOEPEAHvwg4Q8CUAXG/JyW6K0AewPNFaAJAAAAAAAAAAAB//9k=;" parent="WIyWlLk6GJQsqaUBKTNV-1" vertex="1">
          <mxGeometry x="180" y="-20" width="45.53" height="50" as="geometry" />
        </mxCell>
        <mxCell id="kdGjKbwBno01de8cuiCs-166" value="" style="shape=image;verticalLabelPosition=bottom;labelBackgroundColor=default;verticalAlign=top;aspect=fixed;imageAspect=0;image=data:image/jpeg,/9j/4AAQSkZJRgABAQAAAQABAAD/2wCEAAkGBxAPDw0NDg4UDQ8NEw4ODw8NDw8QDQ8QFhcXGRYSFhcZICkhGRsnHxYYJD8iKC4sLzAvGCA1OjUtOSkuLywBCgoKDg0OGxAQGzknICYuLiwsMS4uLi4uLi4uLC4sLi4wLiwuLCwuLC4uLi4uLi4uLCwuLC4uLiwsLi4sLi4uLv/AABEIAOsA1gMBIgACEQEDEQH/xAAcAAEAAQUBAQAAAAAAAAAAAAAAAQIEBQYHAwj/xABKEAACAQMAAwoICA0EAwAAAAAAAQIDBBEFITEGEhMyQVFSYXGRBxSBk6Gx0dIVFiIzU1RysxcjJDRCYnN0gpKisvA1lMHhQ2Px/8QAGwEBAAIDAQEAAAAAAAAAAAAAAAECAwQFBgf/xAA1EQACAQICBggFBAMBAAAAAAAAAQIDEQQhEjFRYZGhBRQyQXGBscETFSLh8COi0fEzQlIk/9oADAMBAAIRAxEAPwDuIAAAAAAAAB43FeFOMp1JKEI65Sm0orysrnNRTlJ4UU229iS2s5Nuj05O8qt5aowb4KnyJdNrpP0ZwZqNF1XuMNasqS3m2aR3d0YPe0Kcq76UnwdPyZWX3I1+73bXs+JKFFcnB0033zya22elS2qRjv5Upxh0pQkod7WDoRw9OPdx/LHPliKku/h+XLuvp+8nxrur/BUlBd0cFnUvKsuNWqS+1Um/WzwbIbM2ilqXJGJyk9b5smUm9rz2kKo1sk12NopbKWwQXMNI148WvVj9mpUj6mXdDdPfU+Ld1P42qn96ZiGyGyrhF60WU5beZt9h4QrqDSrQp148urgqnetXoN10Dunt7z5NOThVxl0avyanW48kl2eXBxliM3FqUW4yi1KMotqUWtjTWxmGphoS1ZMzwxM468/zafQYNP3DbqXdxdvXa8Zprjalw0F+ljkkuVdeVypbgc2cHB6LOjCamroAAqWAAAAAAAAAAAAAAAAAAMFuzrunYXDW2ajT8k5JS9DZyhnTvCE/yF/tKXrOYNnSwa/T8zm4x/qeRv24HQlPg1e1Iqc5SkqO+WVCMXhyS6TaevmXWzdWs6nrT1NPYav4PtIRqWioZ/GW7mpR5XGUnKMuzW15DajSxDbqO5u4eyprR/Gcv3d6EhbVKdajHeUq++zBaowqLGzmTT2cmGaq2bv4TdIxlKhaxacqe+q1P1W1iMe3GX3c5ozZ0aDbprSOdXSVRpBspbDZQ2ZjCGylkspYJDIbDZS2QC40bfytq1G5hxqMlPHSX6UexrK8p3ulUU4xnF5jNKUXzprKZ88tndtzLzY2Le3xe3+7iaWMWUX5G9g3rRlAAaJugAAAAAAAAAAAAAAAAAGs+EL8xf7Sl6zlzZ1Pd5RnUsnGnTlVlwlN72nCU5Yy9eFrOdPQ119Ur+Yq+w6WEaVPzOdi4t1Ml3ItbW6qUZqpSnKnOOyUHh9nWuoy9XdlfyjvOH3vI5Rp01N+XGryYLB6FuvqdfzFX3Sl6Fu/qdfzFX3TPJQlm7GCPxFkr8yxnNtuUm5OTbbk25Nva23tZQ2X70Ld/U6/+3q+6Q9CXf1Ov/t6vultKO0r8OWzkY5shl/PQ10k27Sukk226FVJJbW3vdRjmwmnqDTWtBshslspbBAbKGw2UtgkNndty/5hYfu9t93E4O2d43L/AJhYfu9t93E08b2V4m5hNbMqADQN4AAAAAAAAAAGG3Q6fp2cE5fLqzzwdJPDfW3yR6yYxcnZESkoq7MtOainKTUUtbbeEl1sw1zursqbw7hTf/qjOou+Ka9JzfS2l691LfVqjks5jTjqpR7I/wDLy+sx7N6GCWub4GjPGv8A1XE6f8eLLpVPNSI+PNl0qnmpHL2ylsydTp7zH1upu4HUfj3Y9Kp5qQ+Pdj0qnmpHLGyGx1OnvHW6m46n8fLHpVPNSHx8selU81I5U2UNkdUp7x1upuOr/H2x6VTzUiPj/YdKp5qRyhspY6pT3k9bqbjqOkN3NjOjWpxlU306dSEc0pYy4tI5aGylsy06UafZMVSrKprDZQ2S2UtmQoQ2UtktlLYBDZ3ncu8aPsOq2tvu4nBTvG5n/T7L92t/u0aWNf0I3MH2mX/jsP8AEPHYf4jHA8gulK+7h9zs/AiZHxuHO+5ntCaexp9hiBGbTynh9ReHStRP64prdl6toh0F3MzQLa0r79a9Ult6y5O3TqRqRU46mazTTswAC5BaaRvI29KpXnxacXJ875orrbwvKcg0lfTuKs69V5lN56orkiupG6+Ei8ap0bZP5xyqz7I6op+Vt/wmgM6WDp2jpd79Dm4upeWjs9QylslspbNs1CGylslshsAhspbJbKWyCQ2UMMpYJDIYbIbADZQ2GylsgkNlLYbKWwA2UsMAA7xuZ/0+y/drf7tHBzvO5xYsLJPU1bW+er8WjSx3Y4+huYPtMoIyCMnz3uPQAjIyQQSV0au8kpLk9POZlPOtcpgcmWsKmaa6so6/RFe0pU335r35W4GviIZKRdAA7xqHLd3tzv76pHkowp0l3b9/3+g1xsvtO1t/dXU9uatXHYpNL0JGPbO1TVoJbji1Hebe8NlLYbIbLlA2UthspbIJDZQ2S2UsEhlLYYbAIbKWyWyhsgENkNhspbBIbKWw2QAAAlybc6kltb5iAXOjbKVzWo20ONXnGmscie2XYll+Q75XSp0t5HUklCK6sYx3Go+D3cnK2XjdzHe16i3tOm9tGm9rfNN+hauVo2W9rb6WFsj6es4XS+MUKbSe1LxevgdXA0Gs3+ItskZGSDxh2BkjIyUlSSS/0VPXOPY/aY4utHSxVS5016MmzgKmjiYeNuOXuVqq8GZkAHrzmnC6099KUuk5PveTzbK6sd7KUei2u5nm2dw4YbKWw2UtgBsobJbKGAGQyUm2kk220kkm229iS5WdH3LbhoQUa97FVKjw40Hh0qf2+ScurZ27THUqRpq7MlOnKo7I0XRuhbq6129vOpHp4Uaf88sJ95nYeDu+ksudGHVKrUz/AExZ0+dzCHyduNWFsXUeLv3yRXlZx63TFOErXXBs6NPAK2efI5w/Bve/S2/na3uEPwbXv0tv52t7h0jx6XR9Y8el0PWYfnlPb+1mTqC2czmv4Nb76W387W9wh+DS++lt/O1vcOl+PS6HrHj0uj6x88p7f2sdQWzmcz/BpffS2/nK3uEfg0vvpbfzlb3Dpnj0uj6x4/Lo+sj55T2/tZPUFs5nOrbwYXLf465pU1z0o1Kr7mom36A3HWlk1VSdatH/AM1fDcPsLZHt29ZlJX8uRY7y2q1pS4zb/wA5jXr9OxcbRu+S/nkZKeBUXe3uXN3eZzGGzllzllkZIPO18ROtLSn/AF4HQhBRVkMkAg1y4yQCMlblge1m/wAZT8npPDJ6WfzlP7S9Zei/1YeK9SJdlmwgA9wck4np2lvLq6hs3tWtjs3za9GCwbNi3f23B39V8laNOqu7ev0wZrjZ2abvBPccaorTa3kNlLZLZQy5QMpYZKi21GKzKTSiudvUkAb74NdAqWb+rHOHKFunsytUqvriuyXUbxd3H6EfKxZ20ba3p0YbKMIwXW0sZfa/WWR5PpfGSvoxev0+/wDJ38JRUY+HqAAedN4AEZAJIyQRki5NiSMkZIyVuTYkpyMkFGyQRkEFSwIBGSpIyRkZIyVuSMlxo5Zqw6s+hFrkyOhYZlOXR9b/APhsYGGniacd6fDP2KVnowbMwAD2xyjQvChZ/JtrlLiuVGX8Xyo+T5Mu8582dt05o5XVvWt3q4SPyZP9Ga1xl5GkcTr0pU5Tpzi4zg3CUXtUk8NHSwk7w0dhzcXC09LaebZDDKWbRrBsvNBrN1Zp8te3X9cSybLzQT/K7L9vb/3xKy7L8C0O0juF9xH2oxxkb/idxjjwnSf+fyXqz0lHsgAg5xmGSBkpyVuTYnJGSCMlbk2JIyQRkrcsCAQUbJSJIyRkjJUkZIyMkZKtlhkjJJBVskgzui6W9prO2fy35dnowYe1ocJOMOR631I2U7vQlC8pVnqX0r34avNmpi55KAAB6Q0AaXu33KO5zdWyXjCSU4akqqWxp9NbOtdiN0BeE3B3RWcFNWZ8/VYShKUJxcJReJRmnGUXzNPWmUNncdKaEtrpflFCNRpYU9caiXMpxw0vKYGt4O7KTypVoLmjUg1/VFs3o4uDX1ZGhLCTTyfscqbLvQL/ACuy/b2/98To/wCDez+luP56XuFdr4PrSlUp1oVa++pTp1YqU6W9coSUkniGzUTLFU2mvYRw1RNPLibRf8TuMbkyWkOI/IYzJ4vpT/P5L3O7Q7IIyMkHMM4yQRkgq2STkgmCy4rnMn8HQ55fzf8ARsYfB1cQm6fdvKTqRhrMUQZX4Nhzy717B8GQ55d69hn+UYnYuJXrFPbyMTkjJl/g2HPLvXsI+C6fPLvXsI+T4ndx+xPWaf4jEZKcmZ+C6f63evYR8FU+eXevYV+TYrdx+xPWaf4jDZIM18FU+eXevYPgmnzy717CPk2K3cfsT1qmYUmEW2kllvYltMytGU/1n2v/AKLmjbwhxIpf8l6XQdZy+uSS3Zv0t58issXC2R46OtODjr40tpegHpaNKNGChDUjRlJyd2AAZCoAAAAAAAABa6R4j7UYvJlNI/NvtRisnm+ln/6PJe5u4fsDJGRkpOWZySCAVuWCeNa2o9vGqnT9J4ZKciNWcey2vBteg0U9Z7+N1On6SPG6nT9J4ZEU28JZb2Ja2yesVv8At8WToR2Ht47U6b7yPHKn0j7yZWNVLPB9zTfdtLYmpUxNPtuS8XJeojGEtVuR7+OVPpH3mdtm3CDetuKbfO8GtmyWvzdP7MPUjrdCVJzqT0m3ktbb797NbFxSirLvPYAHojRAAAAAAAAAAAAAAAAAALTSXzb7UYkzdxDfwlHla1GDZ5vpiLVaMu5r0efqjdwzvFoZIBGTkXNoEZGSMlWyRkjJGSMlGybE5MvoiklBT5Z5182HjHoMMZbRFwt7wT2ptrrT1nS6IcFiVpbHbxy520jBik/h5GUMPpmgk41Fqzql1vkZmDCaWuVJqEXlRy21s7Dt9MOCwslPy8f6vfdc1cMn8RWLA2S1+bp/Zh6ka7SpucowW2T/AMZs0YpJJbFqRz+gYO8592S89fJGfGSySKgAejNAAAAAAAAAAAAAAAAAAAGOvrPOZwWv9KPOZEGHEYeFeGhPVzT2r83PItCbi7o1tlOTO3FpCpra185jqujJritTXceZxHRdek/pWkt2vhr4XN+GIhLXkWWSMldWjKPGjjrefWeZy53g7Sye/I2VnqJyQCClyQAetO1qS4sM9eMLvZMIOo7RV/BX5INqObKXXm1hzbXM3qKIRbaSWW9iW0yNHRMnx5KK5o6/TyGSoW0Ka+Ssc/K2deh0TiKzTqvRW/N8O7z1bzVniYRyjmW+j7Lg1vpa5vuRfgHpqNGFGChBZI0JzcndgAGUqAAAAAAAAAAAAAAAAAAAAAAAADynQi9sU+1JnqCGrqzBbOyp9BE+J0+gvWXAMaoUl/ouC/gtpy2nnTpRjsSXYkegBlWSsioAAAAAAAAAAAAAAAAAAAAAAAAAAABDKGAV5Kd+UMoYB68IOEPJlIB7cIOEPEAHvwg4Q8CUAXG/JyW6K0AewPNFaAJAAAAAAAAAAAB//9k=;" parent="WIyWlLk6GJQsqaUBKTNV-1" vertex="1">
          <mxGeometry x="170" y="380" width="45.53" height="50" as="geometry" />
        </mxCell>
        <mxCell id="kdGjKbwBno01de8cuiCs-167" value="" style="shape=image;verticalLabelPosition=bottom;labelBackgroundColor=default;verticalAlign=top;aspect=fixed;imageAspect=0;image=data:image/jpeg,/9j/4AAQSkZJRgABAQAAAQABAAD/2wCEAAkGBxAPDw0NDg4UDQ8NEw4ODw8NDw8QDQ8QFhcXGRYSFhcZICkhGRsnHxYYJD8iKC4sLzAvGCA1OjUtOSkuLywBCgoKDg0OGxAQGzknICYuLiwsMS4uLi4uLi4uLC4sLi4wLiwuLCwuLC4uLi4uLi4uLCwuLC4uLiwsLi4sLi4uLv/AABEIAOsA1gMBIgACEQEDEQH/xAAcAAEAAQUBAQAAAAAAAAAAAAAAAQIEBQYHAwj/xABKEAACAQMAAwoICA0EAwAAAAAAAQIDBBEFITEGEhMyQVFSYXGRBxSBk6Gx0dIVFiIzU1RysxcjJDRCYnN0gpKisvA1lMHhQ2Px/8QAGwEBAAIDAQEAAAAAAAAAAAAAAAECAwQFBgf/xAA1EQACAQICBggFBAMBAAAAAAAAAQIDEQQhEjFRYZGhBRQyQXGBscETFSLh8COi0fEzQlIk/9oADAMBAAIRAxEAPwDuIAAAAAAAAB43FeFOMp1JKEI65Sm0orysrnNRTlJ4UU229iS2s5Nuj05O8qt5aowb4KnyJdNrpP0ZwZqNF1XuMNasqS3m2aR3d0YPe0Kcq76UnwdPyZWX3I1+73bXs+JKFFcnB0033zya22elS2qRjv5Upxh0pQkod7WDoRw9OPdx/LHPliKku/h+XLuvp+8nxrur/BUlBd0cFnUvKsuNWqS+1Um/WzwbIbM2ilqXJGJyk9b5smUm9rz2kKo1sk12NopbKWwQXMNI148WvVj9mpUj6mXdDdPfU+Ld1P42qn96ZiGyGyrhF60WU5beZt9h4QrqDSrQp148urgqnetXoN10Dunt7z5NOThVxl0avyanW48kl2eXBxliM3FqUW4yi1KMotqUWtjTWxmGphoS1ZMzwxM468/zafQYNP3DbqXdxdvXa8Zprjalw0F+ljkkuVdeVypbgc2cHB6LOjCamroAAqWAAAAAAAAAAAAAAAAAAMFuzrunYXDW2ajT8k5JS9DZyhnTvCE/yF/tKXrOYNnSwa/T8zm4x/qeRv24HQlPg1e1Iqc5SkqO+WVCMXhyS6TaevmXWzdWs6nrT1NPYav4PtIRqWioZ/GW7mpR5XGUnKMuzW15DajSxDbqO5u4eyprR/Gcv3d6EhbVKdajHeUq++zBaowqLGzmTT2cmGaq2bv4TdIxlKhaxacqe+q1P1W1iMe3GX3c5ozZ0aDbprSOdXSVRpBspbDZQ2ZjCGylkspYJDIbDZS2QC40bfytq1G5hxqMlPHSX6UexrK8p3ulUU4xnF5jNKUXzprKZ88tndtzLzY2Le3xe3+7iaWMWUX5G9g3rRlAAaJugAAAAAAAAAAAAAAAAAGs+EL8xf7Sl6zlzZ1Pd5RnUsnGnTlVlwlN72nCU5Yy9eFrOdPQ119Ur+Yq+w6WEaVPzOdi4t1Ml3ItbW6qUZqpSnKnOOyUHh9nWuoy9XdlfyjvOH3vI5Rp01N+XGryYLB6FuvqdfzFX3Sl6Fu/qdfzFX3TPJQlm7GCPxFkr8yxnNtuUm5OTbbk25Nva23tZQ2X70Ld/U6/+3q+6Q9CXf1Ov/t6vultKO0r8OWzkY5shl/PQ10k27Sukk226FVJJbW3vdRjmwmnqDTWtBshslspbBAbKGw2UtgkNndty/5hYfu9t93E4O2d43L/AJhYfu9t93E08b2V4m5hNbMqADQN4AAAAAAAAAAGG3Q6fp2cE5fLqzzwdJPDfW3yR6yYxcnZESkoq7MtOainKTUUtbbeEl1sw1zursqbw7hTf/qjOou+Ka9JzfS2l691LfVqjks5jTjqpR7I/wDLy+sx7N6GCWub4GjPGv8A1XE6f8eLLpVPNSI+PNl0qnmpHL2ylsydTp7zH1upu4HUfj3Y9Kp5qQ+Pdj0qnmpHLGyGx1OnvHW6m46n8fLHpVPNSHx8selU81I5U2UNkdUp7x1upuOr/H2x6VTzUiPj/YdKp5qRyhspY6pT3k9bqbjqOkN3NjOjWpxlU306dSEc0pYy4tI5aGylsy06UafZMVSrKprDZQ2S2UtmQoQ2UtktlLYBDZ3ncu8aPsOq2tvu4nBTvG5n/T7L92t/u0aWNf0I3MH2mX/jsP8AEPHYf4jHA8gulK+7h9zs/AiZHxuHO+5ntCaexp9hiBGbTynh9ReHStRP64prdl6toh0F3MzQLa0r79a9Ult6y5O3TqRqRU46mazTTswAC5BaaRvI29KpXnxacXJ875orrbwvKcg0lfTuKs69V5lN56orkiupG6+Ei8ap0bZP5xyqz7I6op+Vt/wmgM6WDp2jpd79Dm4upeWjs9QylslspbNs1CGylslshsAhspbJbKWyCQ2UMMpYJDIYbIbADZQ2GylsgkNlLYbKWwA2UsMAA7xuZ/0+y/drf7tHBzvO5xYsLJPU1bW+er8WjSx3Y4+huYPtMoIyCMnz3uPQAjIyQQSV0au8kpLk9POZlPOtcpgcmWsKmaa6so6/RFe0pU335r35W4GviIZKRdAA7xqHLd3tzv76pHkowp0l3b9/3+g1xsvtO1t/dXU9uatXHYpNL0JGPbO1TVoJbji1Hebe8NlLYbIbLlA2UthspbIJDZQ2S2UsEhlLYYbAIbKWyWyhsgENkNhspbBIbKWw2QAAAlybc6kltb5iAXOjbKVzWo20ONXnGmscie2XYll+Q75XSp0t5HUklCK6sYx3Go+D3cnK2XjdzHe16i3tOm9tGm9rfNN+hauVo2W9rb6WFsj6es4XS+MUKbSe1LxevgdXA0Gs3+ItskZGSDxh2BkjIyUlSSS/0VPXOPY/aY4utHSxVS5016MmzgKmjiYeNuOXuVqq8GZkAHrzmnC6099KUuk5PveTzbK6sd7KUei2u5nm2dw4YbKWw2UtgBsobJbKGAGQyUm2kk220kkm229iS5WdH3LbhoQUa97FVKjw40Hh0qf2+ScurZ27THUqRpq7MlOnKo7I0XRuhbq6129vOpHp4Uaf88sJ95nYeDu+ksudGHVKrUz/AExZ0+dzCHyduNWFsXUeLv3yRXlZx63TFOErXXBs6NPAK2efI5w/Bve/S2/na3uEPwbXv0tv52t7h0jx6XR9Y8el0PWYfnlPb+1mTqC2czmv4Nb76W387W9wh+DS++lt/O1vcOl+PS6HrHj0uj6x88p7f2sdQWzmcz/BpffS2/nK3uEfg0vvpbfzlb3Dpnj0uj6x4/Lo+sj55T2/tZPUFs5nOrbwYXLf465pU1z0o1Kr7mom36A3HWlk1VSdatH/AM1fDcPsLZHt29ZlJX8uRY7y2q1pS4zb/wA5jXr9OxcbRu+S/nkZKeBUXe3uXN3eZzGGzllzllkZIPO18ROtLSn/AF4HQhBRVkMkAg1y4yQCMlblge1m/wAZT8npPDJ6WfzlP7S9Zei/1YeK9SJdlmwgA9wck4np2lvLq6hs3tWtjs3za9GCwbNi3f23B39V8laNOqu7ev0wZrjZ2abvBPccaorTa3kNlLZLZQy5QMpYZKi21GKzKTSiudvUkAb74NdAqWb+rHOHKFunsytUqvriuyXUbxd3H6EfKxZ20ba3p0YbKMIwXW0sZfa/WWR5PpfGSvoxev0+/wDJ38JRUY+HqAAedN4AEZAJIyQRki5NiSMkZIyVuTYkpyMkFGyQRkEFSwIBGSpIyRkZIyVuSMlxo5Zqw6s+hFrkyOhYZlOXR9b/APhsYGGniacd6fDP2KVnowbMwAD2xyjQvChZ/JtrlLiuVGX8Xyo+T5Mu8582dt05o5XVvWt3q4SPyZP9Ga1xl5GkcTr0pU5Tpzi4zg3CUXtUk8NHSwk7w0dhzcXC09LaebZDDKWbRrBsvNBrN1Zp8te3X9cSybLzQT/K7L9vb/3xKy7L8C0O0juF9xH2oxxkb/idxjjwnSf+fyXqz0lHsgAg5xmGSBkpyVuTYnJGSCMlbk2JIyQRkrcsCAQUbJSJIyRkjJUkZIyMkZKtlhkjJJBVskgzui6W9prO2fy35dnowYe1ocJOMOR631I2U7vQlC8pVnqX0r34avNmpi55KAAB6Q0AaXu33KO5zdWyXjCSU4akqqWxp9NbOtdiN0BeE3B3RWcFNWZ8/VYShKUJxcJReJRmnGUXzNPWmUNncdKaEtrpflFCNRpYU9caiXMpxw0vKYGt4O7KTypVoLmjUg1/VFs3o4uDX1ZGhLCTTyfscqbLvQL/ACuy/b2/98To/wCDez+luP56XuFdr4PrSlUp1oVa++pTp1YqU6W9coSUkniGzUTLFU2mvYRw1RNPLibRf8TuMbkyWkOI/IYzJ4vpT/P5L3O7Q7IIyMkHMM4yQRkgq2STkgmCy4rnMn8HQ55fzf8ARsYfB1cQm6fdvKTqRhrMUQZX4Nhzy717B8GQ55d69hn+UYnYuJXrFPbyMTkjJl/g2HPLvXsI+C6fPLvXsI+T4ndx+xPWaf4jEZKcmZ+C6f63evYR8FU+eXevYV+TYrdx+xPWaf4jDZIM18FU+eXevYPgmnzy717CPk2K3cfsT1qmYUmEW2kllvYltMytGU/1n2v/AKLmjbwhxIpf8l6XQdZy+uSS3Zv0t58issXC2R46OtODjr40tpegHpaNKNGChDUjRlJyd2AAZCoAAAAAAAABa6R4j7UYvJlNI/NvtRisnm+ln/6PJe5u4fsDJGRkpOWZySCAVuWCeNa2o9vGqnT9J4ZKciNWcey2vBteg0U9Z7+N1On6SPG6nT9J4ZEU28JZb2Ja2yesVv8At8WToR2Ht47U6b7yPHKn0j7yZWNVLPB9zTfdtLYmpUxNPtuS8XJeojGEtVuR7+OVPpH3mdtm3CDetuKbfO8GtmyWvzdP7MPUjrdCVJzqT0m3ktbb797NbFxSirLvPYAHojRAAAAAAAAAAAAAAAAAALTSXzb7UYkzdxDfwlHla1GDZ5vpiLVaMu5r0efqjdwzvFoZIBGTkXNoEZGSMlWyRkjJGSMlGybE5MvoiklBT5Z5182HjHoMMZbRFwt7wT2ptrrT1nS6IcFiVpbHbxy520jBik/h5GUMPpmgk41Fqzql1vkZmDCaWuVJqEXlRy21s7Dt9MOCwslPy8f6vfdc1cMn8RWLA2S1+bp/Zh6ka7SpucowW2T/AMZs0YpJJbFqRz+gYO8592S89fJGfGSySKgAejNAAAAAAAAAAAAAAAAAAAGOvrPOZwWv9KPOZEGHEYeFeGhPVzT2r83PItCbi7o1tlOTO3FpCpra185jqujJritTXceZxHRdek/pWkt2vhr4XN+GIhLXkWWSMldWjKPGjjrefWeZy53g7Sye/I2VnqJyQCClyQAetO1qS4sM9eMLvZMIOo7RV/BX5INqObKXXm1hzbXM3qKIRbaSWW9iW0yNHRMnx5KK5o6/TyGSoW0Ka+Ssc/K2deh0TiKzTqvRW/N8O7z1bzVniYRyjmW+j7Lg1vpa5vuRfgHpqNGFGChBZI0JzcndgAGUqAAAAAAAAAAAAAAAAAAAAAAAADynQi9sU+1JnqCGrqzBbOyp9BE+J0+gvWXAMaoUl/ouC/gtpy2nnTpRjsSXYkegBlWSsioAAAAAAAAAAAAAAAAAAAAAAAAAAABDKGAV5Kd+UMoYB68IOEPJlIB7cIOEPEAHvwg4Q8CUAXG/JyW6K0AewPNFaAJAAAAAAAAAAAB//9k=;" parent="WIyWlLk6GJQsqaUBKTNV-1" vertex="1">
          <mxGeometry x="170" y="790" width="45.53" height="50" as="geometry" />
        </mxCell>
        <mxCell id="kdGjKbwBno01de8cuiCs-171" value="" style="shape=image;verticalLabelPosition=bottom;labelBackgroundColor=default;verticalAlign=top;aspect=fixed;imageAspect=0;image=data:image/png,iVBORw0KGgoAAAANSUhEUgAAANgAAADpCAMAAABx2AnXAAAAwFBMVEX///8UEhMREiQAAADa2tsRDxAJBQdLSkoODA0qKClbWVpoaGhCQkJ3dncODyIAABoGAAQAABcAABsAABPr6+v19fXi4uLx8fGUlJpBQUxtbnYUFSbOzc2+vr62tbagoKCCgoKWlZWoqKiMi4s1NDV5eYEpKjhJSVQAAB96e4KHiJAhITFZWmEAAA45OUUuLS0eHR18e3xhYGAjISLHxsc9PDxvbW5SUVE0M0BVVl5iY2uop62Xl56io6qzsrhYWGNhjz0kAAAHG0lEQVR4nO2di1qqShSAhQWG7QIFLwhqqYExGN2slGz3/m91wCsgnjoKDHDWX5oOfTm/rFlOMDNUKgiCIAiCIAiCIAiCIAiCIAiCIAiCIEipabV7vXaLdi0SpzO+A4/HcZN2TZKlz4PAeAgAA9p1SZLRWsuHhxvatUkODpg9PPRo1ycxruoBMaZ6R7s+SdEL7jAPmO02tQbPHxfXo4JmlHFU7Ha75aYOUK962fK2kJ8DLxGx6tVmwyXw23b32KFaxdO4jIgJtXX5RaAcagXcZ0fEbkLF8Ey5lr/B7zwFnsaLtZ6EUCm0j/y1vNAZC37niRnuWk28WD+aUob06vwb+rDtPAnbrB4v9hxNKRcUa/0zgc6TsO0Wxou9R0p5nma9f6K3TeCrqgK3KowX+xMVA6o1/4G7aqjZrKOrBGKzaEJY7bISiEUTwjrTlUDssh6uLFyuSosvdlENV3bdK0Sx/JKYWJPL1xGtZMRaN1d+p6x2m5/eYyJiXA1Wf8brcubmuE8SYjOo7ovG9FxCJCDWhOB/M3k5CpmAWLhYYPKRQs4Xawd70f4uG9H02XG+2CjaKbuk6bPjfLFobzMnH9vni11HShkUSxUUq6AYiqUKilVQDMVSBcUqKIZiqYJiFRRDsVRBsQqKoViqoFgFxVAsVVCsgmIolir/GzHh1S99C4+RZfhq3O8WSoyBcasVHXbvD2zutIbR0mKJMfD0dODllTKHpQUTY3j+oCi+tGhivwbF0qQ1uH15eR4dDOI6R2w1zjY6yyBbseY1bLiahbecJcbD8KZ2mH2y8+pXd+FShffQLKKzxDwziO6vLMX64VFcj8FJbeeJxZKZWDvyroIQGMZVZLHoLLfQaKcCi3GH/YjAONACix12/HZTWIotdhVT9eprCcQgrusH7yUQi3/1UUnF+M0EywKLPR72DVYvf1d0sejQ1t3r3xZcLDoXdl+BfrHFWrX4WGQEpllosYPx4/safBRbLLRCQLgKw2KLtY+J8dD7KLJY5eCI4BbhLnpotFhix4NRSN4rUzEutsOYEpkepToajEUXi8y8L5FYhsGY8ZHg7IIx60PcV/Wf61RIsZiDOuUQizuqUw6xrDJj9mK9bDIjhfNj2QQjjRN/j1kEIw2xTDIjlVO1WQQjFbFWBpmRzsn1DDIjpVEDt6kHI63hEAdn+csiFl14NWnoLaKQcjDyAi2x1muqwSjQW1Q43WCEF2pih8OfEhW7pSeWajBSXZpqluLHNMx+fv30SDEYge4y3TGDu5JBuKO7LlV0ic/E2A20oEVawUh9ibROOn1Gnv461kdPup/FbgF5ikRndCRCHhZY7DBpnPXLwzUZUgjGnKxol3ww5uRCKJ2kP6breVkoPulgXI1iygXHRpCd6PVB22fPVZJm+6HG9Gkm2Mxo/ot5CJeYWT1nV1DqJ/RPJ5+nQFwxSMYsJ8voBuknEY25Was6SK969lCJnF5PqF07M+vn1KvidxvPCEchzxcTGlRP3mk5v25j8wVOOtvJwxv1owE/MHs7QQ3yHIY7Bm/w3wIS4D3vu2tD/yNuomw8AsBL3nob/0J7XAOo/tgZ8ayYHF3043f0hh/+ZPCjcrx/KZN3qicfTqY5G1/WV3Pd64LAbxCE6qqI+TPk8nHliBPpzAbD64+7V0ao1qFe5Z9qV3/Go1kRL6B5jFar0yn0PkIQBEEQBEEQBEEQBEEQBEEQBEEQBDkdrqRUoKRU2JKCYkVjIyZubmzgJ8vKMivun3mPRGn/NOesxURHZEXTXj+e65ttjelCMZ2tij4RRft7XhSztZjsulKDNJQG21CA6LKiSJICo8/PT20JCoAoA8x7AA7pFktMtIliW4ZKwFINazlXVWOyXHALAK05Vbme2eW4yazLmV0nUzFZ9JuCd/O/Zf+O9X/6zWJbLsqyKOm6Lnr3/q/oYlCMVVRd07SGprn1OrlXWdCMxUO3x1maavbA/TtzwGxykiRm6iVakuVV2OyyXsVt4jqSKcs2kXTZZG2v7XjfmmFZU1ebEE1duEuNOIYlBcVkd0qmqqtZXVkh4vKh4ZKJ/AD3nKVOBuAMZg+K2e7ZGcdhwzK+v1Rr8TkhZLkg359TT8MdEalrTYhFjKWlyRNr4f61dDKxvnRjqRPDlYNiovhp2UQ0zaVoe2/AVFe/F7L3Bvjhx2kzQx1Y3d6Ee8hWTJz8NdWJ/0XI173nqGmqOvkizsL4JsQwiao5y7lrLA1LaxCXyKqlfS+VoBgra7ZsEksyifHggktscy4uVKuhTCf3qqs8eCGpgZZ16vBCb26K3cbctE3ZsXXbEeWubTuSY89tWzftrr5YOF2vTNe7iimyjtINtzG/nbJiQ1rdJFZu+K1WVhoi6zUrxdu5kiJ6GzJPieu04eeI9d0qZewe+3fS+sE6n6zTS1isbKBY0Sit2D+VVMW6v3JPAAAAAABJRU5ErkJggg==;" parent="WIyWlLk6GJQsqaUBKTNV-1" vertex="1">
          <mxGeometry x="1090" y="-50" width="64.89" height="70" as="geometry" />
        </mxCell>
      </root>
    </mxGraphModel>
  </diagram>
</mxfile>
